<?xml version="1.0" encoding="UTF-8"?>
<svg id="Layer_2" data-name="Layer 2" xmlns="http://www.w3.org/2000/svg" viewBox="0 0 226.65 107.14">
  <defs>
    <style>
      .cls-1 {
        fill: #ffc300;
      }
    </style>
  </defs>
  <g id="Layer_1-2" data-name="Layer 1">
    <g>
      <g>
        <path class="cls-1" d="M2.65,91.75h23.1l-1.12,6.35H7.92l-1.57,9.04H0l1.57-9.04,1.08-6.35ZM31.44,89.06H3.14l1.08-6.35h28.3l-1.08,6.35Z"/>
        <path class="cls-1" d="M52.28,90.84l6.84-4.82,3.94-2.79c.47-.35.99-.52,1.57-.52h9.32l-17.31,12.21-5.76,4.08-9,6.35-1.78,1.26c-.47.35-.99.52-1.57.52h-9.32l17.31-12.21,5.76-4.08ZM33.43,82.71h9.32c.53-.02,1,.15,1.4.52l6.28,5.9-5.76,4.08-11.24-10.5Z"/>
        <path class="cls-1" d="M107.07,89.06h-13.65l-3.14,18.08h-6.35l3.14-18.08h-13.68l1.12-6.35h33.68l-1.12,6.35Z"/>
        <path class="cls-1" d="M109.06,94.54h23.21c.79-.02,1.48-.29,2.08-.8.59-.51.97-1.15,1.13-1.92.16-.72.01-1.37-.45-1.94-.47-.57-1.07-.84-1.81-.82h-23.21l1.08-6.35h23.24c2.49,0,4.47.89,5.95,2.67,1.48,1.78,1.99,3.93,1.55,6.44-.4,1.95-1.24,3.69-2.55,5.2-1.3,1.51-2.9,2.61-4.78,3.28l4.68,6.84h-8.38l-4.29-6.25h-12.21l-1.08,6.25h-6.35l1.08-6.25,1.12-6.35Z"/>
        <path class="cls-1" d="M190.37,87.11l-.35,1.95-3.11,18.08h-6.39l3.14-18.08h-1.64l-28.83,17.34c-.79.49-1.65.73-2.58.73h-10.09l38.6-23.17c1.3-.84,2.73-1.26,4.29-1.26h3.28c1.19-.05,2.16.38,2.91,1.29.76.91,1.01,1.94.75,3.11Z"/>
        <path class="cls-1" d="M196.7,82.71h6.35l-1.88,10.92,14.62-10.4c.49-.35,1.02-.52,1.61-.52h9.25l-16.68,11.87,13.33,12.56h-9.25c-.54.02-1-.15-1.4-.52l-11.8-11.13-2.02,11.66h-6.35l4.22-24.43Z"/>
      </g>
      <g>
        <polygon class="cls-1" points="115.99 45.25 105.65 53.91 129.05 44.72 113.75 36.02 108.89 41.93 115.99 45.25"/>
        <g>
          <polygon class="cls-1" points="123.74 24.48 130.63 31.07 143.11 14.1 130.27 23.62 127.84 19.76 133.45 13.16 105.97 13.16 100.9 13.23 96 19.82 100.9 16.74 105.97 18.64 113.1 20.96 83.54 64.19 109.14 42.03 115.52 33.75 123.74 24.48"/>
          <path class="cls-1" d="M127.84,10.53c2.91,0,5.26-2.36,5.26-5.26s-2.36-5.26-5.26-5.26-5.26,2.36-5.26,5.26,2.36,5.26,5.26,5.26Z"/>
        </g>
      </g>
    </g>
  </g>
</svg>