<svg width="304" height="144" viewBox="0 0 304 144" fill="none" xmlns="http://www.w3.org/2000/svg">
<g clip-path="url(#clip0_314_253)">
<path d="M3.55725 123.312H34.5447L33.047 131.848H10.6258L8.51821 143.996H0L2.10756 131.848L3.55925 123.312H3.55725ZM42.1751 119.7H4.21311L5.66481 111.164H43.6268L42.1751 119.7Z" fill="#FFC300"/>
<path d="M70.1192 122.092L79.2933 115.62L84.5822 111.867C85.2061 111.398 85.9079 111.164 86.6898 111.164H99.1871L75.97 127.58L68.2456 133.068L56.1682 141.604L53.7807 143.293C53.1568 143.762 52.453 143.996 51.6731 143.996H39.1758L62.3929 127.58L70.1172 122.092H70.1192ZM44.8426 111.164H57.3399C58.0578 111.134 58.6816 111.368 59.2115 111.867L67.6378 119.794L59.9134 125.282L44.8406 111.164H44.8426Z" fill="#FFC300"/>
<path d="M143.61 119.699H125.308L121.095 143.996H112.576L116.789 119.699H98.4393L99.937 111.164H145.107L143.61 119.699Z" fill="#FFC300"/>
<path d="M146.277 127.065H177.405C178.464 127.035 179.394 126.674 180.19 125.985C180.986 125.298 181.492 124.436 181.712 123.406C181.93 122.437 181.728 121.569 181.104 120.803C180.48 120.038 179.668 119.671 178.67 119.701H147.543L148.995 111.166H180.17C183.509 111.166 186.169 112.362 188.15 114.754C190.132 117.147 190.826 120.032 190.234 123.408C189.702 126.035 188.564 128.365 186.817 130.397C185.069 132.431 182.931 133.9 180.404 134.807L186.677 144H175.443L169.686 135.605H153.304L151.852 144H143.334L144.786 135.605L146.283 127.069L146.277 127.065Z" fill="#FFC300"/>
<path d="M255.342 117.073L254.874 119.699L250.709 143.996H242.143L246.356 119.699H244.157L205.493 143.012C204.431 143.669 203.277 143.998 202.029 143.998H188.502L240.273 112.853C242.021 111.727 243.941 111.164 246.03 111.164H250.431C252.023 111.102 253.325 111.681 254.34 112.899C255.354 114.119 255.69 115.51 255.346 117.073H255.342Z" fill="#FFC300"/>
<path d="M263.836 111.164H272.355L269.827 125.845L289.441 111.867C290.097 111.398 290.813 111.164 291.595 111.164H303.998L281.623 127.111L299.503 143.996H287.1C286.382 144.026 285.758 143.794 285.226 143.293L269.405 128.329L266.69 143.996H258.172L263.834 111.162L263.836 111.164Z" fill="#FFC300"/>
<path d="M155.571 60.8135L141.706 72.4568L173.098 60.1022L152.576 48.4088L146.053 56.3613L155.571 60.8135Z" fill="#FFC300"/>
<path d="M165.975 32.9003L175.217 41.7585L191.95 18.9567L174.727 31.7482L171.476 26.5527L179 17.6944H142.138L135.336 17.7766L128.761 26.6348L135.336 22.4952L142.138 25.0599L151.698 28.1656L112.05 86.2782L146.393 56.4896L154.941 45.3571L165.975 32.9003Z" fill="#FFC300"/>
<path d="M171.472 14.1499C175.371 14.1499 178.532 10.9821 178.532 7.07497C178.532 3.16781 175.371 0 171.472 0C167.573 0 164.411 3.16781 164.411 7.07497C164.411 10.9821 167.573 14.1499 171.472 14.1499Z" fill="#FFC300"/>
</g>
<defs>
<clipPath id="clip0_314_253">
<rect width="304" height="144" fill="white"/>
</clipPath>
</defs>
</svg>
