<svg width="35" height="53" viewBox="0 0 35 53" fill="none" xmlns="http://www.w3.org/2000/svg">
<g clip-path="url(#clip0_461_667)">
<mask id="path-1-inside-1_461_667" fill="white">
<path fill-rule="evenodd" clip-rule="evenodd" d="M15.244 0.013652C16.912 -1.98875e-05 17.3632 0.0546676 18.7304 0.396464C19.5917 0.601543 20.7675 0.970683 21.328 1.20311C21.8886 1.4492 22.9413 2.00975 23.6522 2.47459C24.3632 2.93943 25.4432 3.8281 26.0585 4.42967C26.66 5.0449 27.4804 6.00193 27.8768 6.56248C28.2733 7.1367 28.5741 7.73826 28.5741 7.92967C28.5741 8.12107 28.5057 8.3535 28.41 8.43553C28.3143 8.53123 28.0682 8.61326 27.8632 8.61326C27.535 8.61326 27.371 8.4492 26.7011 7.4785C26.2772 6.86326 25.5116 5.94725 24.9921 5.42771C24.4862 4.92185 23.5292 4.15623 22.8593 3.7324C22.203 3.30857 21.1503 2.73436 20.5077 2.48826C19.8651 2.2285 18.785 1.90037 18.1151 1.76365C17.3358 1.59959 16.3104 1.50389 15.3124 1.50389C14.3143 1.50389 13.2889 1.59959 12.5097 1.76365C11.8261 1.90037 10.7597 2.2285 10.1171 2.48826C9.4745 2.73436 8.39442 3.30857 7.7245 3.75975C7.0409 4.19725 6.05653 4.99021 5.537 5.52342C5.00379 6.05662 4.3202 6.86326 4.00575 7.31443C3.70496 7.7656 3.22645 8.55857 2.96668 9.09178C2.69325 9.61131 2.32411 10.5137 2.14637 11.0742C1.95496 11.6347 1.73621 12.5918 1.64051 13.1933C1.51746 13.8906 1.49012 14.9023 1.54481 15.9961C1.5995 17.2539 1.70887 18.0332 1.96864 18.9355C2.17371 19.6054 2.58387 20.6855 2.88465 21.3281C3.18543 21.9707 3.66395 22.791 3.92371 23.1738C4.19715 23.5429 4.67567 24.1445 4.97645 24.5137C5.2909 24.8691 5.91981 25.4707 7.24598 26.5234V29.5996C7.24598 31.2949 7.287 32.7031 7.34168 32.7304C7.41004 32.7578 8.65418 31.9238 10.1171 30.8847C11.58 29.8457 12.9198 28.998 13.0839 28.998C13.2616 28.9844 13.494 29.0801 13.6034 29.1894C13.7128 29.2988 13.8085 29.5312 13.8085 29.709C13.8222 29.873 13.7128 30.1054 13.5761 30.2285C13.4393 30.3515 11.8671 31.4863 10.0761 32.7304C8.29871 33.9746 6.74012 35 6.63075 35C6.52137 35 6.30262 34.9316 6.15223 34.8633C5.89246 34.7265 5.87879 34.5898 5.87879 27.4804L4.60731 26.209C3.92371 25.5117 3.06239 24.5137 2.72059 23.9941C2.36512 23.4609 1.85926 22.5859 1.58582 22.039C1.31239 21.5058 0.943246 20.5762 0.75184 19.9883C0.560434 19.414 0.300668 18.3476 0.191293 17.6367C0.0272304 16.707 -0.0137852 15.8457 0.0409023 14.6289C0.0955898 13.4668 0.232309 12.5097 0.451059 11.6211C0.642465 10.9101 0.997934 9.83006 1.2577 9.2285C1.50379 8.62693 2.07801 7.5742 2.52918 6.90428C2.98036 6.22068 3.86903 5.1406 4.51161 4.49803C5.16786 3.81443 6.20692 2.96678 6.90418 2.51561C7.57411 2.07811 8.62684 1.50389 9.2284 1.24412C9.82996 0.998027 10.9921 0.615214 11.8261 0.396464C13.0975 0.0820114 13.6171 0.013652 15.244 0.013652ZM23.2011 8.61326C24.0487 8.61326 25.1561 8.69529 25.662 8.80467C26.1815 8.91404 27.0155 9.16014 27.5487 9.36521C28.0682 9.55662 28.9296 9.99412 29.4628 10.3222C29.9823 10.6504 30.7616 11.2246 31.1718 11.5937C31.5819 11.9629 32.2245 12.6465 32.5936 13.1387C32.9628 13.6172 33.5233 14.5605 33.8378 15.2441C34.1659 15.914 34.535 16.8984 34.6718 17.4316C34.8632 18.1426 34.9179 18.8672 34.9179 20.3027C34.9042 21.9707 34.8632 22.3672 34.5487 23.4199C34.3436 24.0762 34.0155 24.9375 33.8241 25.334C33.619 25.7168 33.2089 26.414 32.9081 26.8652C32.6073 27.3164 31.9647 28.0683 30.6249 29.3945V31.9922C30.6249 33.414 30.5975 34.6855 30.5565 34.7949C30.511 34.9316 30.3059 35 29.9413 35C29.4628 35 29.0936 34.7949 24.8827 31.8554H23.4472C22.6542 31.8554 21.5331 31.7597 20.9452 31.6367C20.371 31.5137 19.4276 31.2265 18.8671 30.9941C18.3065 30.7617 17.4042 30.2832 16.8847 29.9277C16.3514 29.5722 15.5448 28.8887 15.08 28.4101C14.6014 27.9453 14.0136 27.2617 13.7811 26.9199C13.535 26.5781 13.0975 25.8125 12.8241 25.2109C12.537 24.623 12.1815 23.6387 12.0175 23.0371C11.8124 22.2578 11.7167 21.5058 11.7167 20.3711C11.703 19.2637 11.7714 18.4707 11.9491 17.7051C12.0858 17.1035 12.3866 16.1738 12.6054 15.6543C12.8241 15.1211 13.2889 14.2734 13.6444 13.7402C13.9999 13.2207 14.6561 12.4277 15.1073 11.9765C15.5585 11.539 16.2694 10.9375 16.6796 10.664C17.0897 10.3769 17.828 9.9531 18.3202 9.70701C18.8124 9.46092 19.7557 9.11912 20.4393 8.94139C21.3554 8.70897 22.0663 8.62693 23.2011 8.61326ZM20.4393 10.4453C20.0565 10.5547 19.2636 10.8965 18.662 11.1972C17.9237 11.5527 17.2128 12.0586 16.4882 12.7422C15.9003 13.289 15.121 14.2051 14.7518 14.7656C14.3554 15.3672 13.9042 16.3379 13.6444 17.0898C13.2616 18.2656 13.2069 18.5527 13.2069 20.0976C13.1932 21.3144 13.2616 22.0664 13.4393 22.6953C13.5624 23.1875 13.9452 24.1308 14.2733 24.8144C14.6972 25.6758 15.162 26.3457 15.8182 27.0566C16.3241 27.6172 17.0897 28.3008 17.4999 28.5742C17.91 28.8476 18.5116 29.2168 18.8261 29.3808C19.1542 29.5312 19.9472 29.8183 20.6034 30.0097C21.6151 30.3105 22.08 30.3652 23.5429 30.3515H25.2929L29.0526 32.9492L29.121 28.7109C30.3378 27.6035 30.953 26.9746 31.2675 26.5918C31.5682 26.2226 32.0468 25.5117 32.3065 25.0195C32.58 24.5273 32.9354 23.666 33.1132 23.1054C33.3729 22.2441 33.4276 21.7793 33.4276 20.2344C33.4276 18.6758 33.3729 18.2246 33.1132 17.3633C32.9354 16.8027 32.58 15.9414 32.3202 15.4492C32.0604 14.957 31.5546 14.1914 31.1991 13.7402C30.83 13.289 30.1054 12.6054 29.5858 12.209C29.0663 11.8125 28.246 11.2929 27.7538 11.0605C27.2616 10.8281 26.4276 10.5273 25.9081 10.3906C25.3749 10.2676 24.4862 10.1172 23.9257 10.0898C23.3651 10.0488 22.5038 10.0625 22.0116 10.1308C21.5194 10.1992 20.8085 10.3359 20.4393 10.4453Z"/>
</mask>
<path fill-rule="evenodd" clip-rule="evenodd" d="M15.244 0.013652C16.912 -1.98875e-05 17.3632 0.0546676 18.7304 0.396464C19.5917 0.601543 20.7675 0.970683 21.328 1.20311C21.8886 1.4492 22.9413 2.00975 23.6522 2.47459C24.3632 2.93943 25.4432 3.8281 26.0585 4.42967C26.66 5.0449 27.4804 6.00193 27.8768 6.56248C28.2733 7.1367 28.5741 7.73826 28.5741 7.92967C28.5741 8.12107 28.5057 8.3535 28.41 8.43553C28.3143 8.53123 28.0682 8.61326 27.8632 8.61326C27.535 8.61326 27.371 8.4492 26.7011 7.4785C26.2772 6.86326 25.5116 5.94725 24.9921 5.42771C24.4862 4.92185 23.5292 4.15623 22.8593 3.7324C22.203 3.30857 21.1503 2.73436 20.5077 2.48826C19.8651 2.2285 18.785 1.90037 18.1151 1.76365C17.3358 1.59959 16.3104 1.50389 15.3124 1.50389C14.3143 1.50389 13.2889 1.59959 12.5097 1.76365C11.8261 1.90037 10.7597 2.2285 10.1171 2.48826C9.4745 2.73436 8.39442 3.30857 7.7245 3.75975C7.0409 4.19725 6.05653 4.99021 5.537 5.52342C5.00379 6.05662 4.3202 6.86326 4.00575 7.31443C3.70496 7.7656 3.22645 8.55857 2.96668 9.09178C2.69325 9.61131 2.32411 10.5137 2.14637 11.0742C1.95496 11.6347 1.73621 12.5918 1.64051 13.1933C1.51746 13.8906 1.49012 14.9023 1.54481 15.9961C1.5995 17.2539 1.70887 18.0332 1.96864 18.9355C2.17371 19.6054 2.58387 20.6855 2.88465 21.3281C3.18543 21.9707 3.66395 22.791 3.92371 23.1738C4.19715 23.5429 4.67567 24.1445 4.97645 24.5137C5.2909 24.8691 5.91981 25.4707 7.24598 26.5234V29.5996C7.24598 31.2949 7.287 32.7031 7.34168 32.7304C7.41004 32.7578 8.65418 31.9238 10.1171 30.8847C11.58 29.8457 12.9198 28.998 13.0839 28.998C13.2616 28.9844 13.494 29.0801 13.6034 29.1894C13.7128 29.2988 13.8085 29.5312 13.8085 29.709C13.8222 29.873 13.7128 30.1054 13.5761 30.2285C13.4393 30.3515 11.8671 31.4863 10.0761 32.7304C8.29871 33.9746 6.74012 35 6.63075 35C6.52137 35 6.30262 34.9316 6.15223 34.8633C5.89246 34.7265 5.87879 34.5898 5.87879 27.4804L4.60731 26.209C3.92371 25.5117 3.06239 24.5137 2.72059 23.9941C2.36512 23.4609 1.85926 22.5859 1.58582 22.039C1.31239 21.5058 0.943246 20.5762 0.75184 19.9883C0.560434 19.414 0.300668 18.3476 0.191293 17.6367C0.0272304 16.707 -0.0137852 15.8457 0.0409023 14.6289C0.0955898 13.4668 0.232309 12.5097 0.451059 11.6211C0.642465 10.9101 0.997934 9.83006 1.2577 9.2285C1.50379 8.62693 2.07801 7.5742 2.52918 6.90428C2.98036 6.22068 3.86903 5.1406 4.51161 4.49803C5.16786 3.81443 6.20692 2.96678 6.90418 2.51561C7.57411 2.07811 8.62684 1.50389 9.2284 1.24412C9.82996 0.998027 10.9921 0.615214 11.8261 0.396464C13.0975 0.0820114 13.6171 0.013652 15.244 0.013652ZM23.2011 8.61326C24.0487 8.61326 25.1561 8.69529 25.662 8.80467C26.1815 8.91404 27.0155 9.16014 27.5487 9.36521C28.0682 9.55662 28.9296 9.99412 29.4628 10.3222C29.9823 10.6504 30.7616 11.2246 31.1718 11.5937C31.5819 11.9629 32.2245 12.6465 32.5936 13.1387C32.9628 13.6172 33.5233 14.5605 33.8378 15.2441C34.1659 15.914 34.535 16.8984 34.6718 17.4316C34.8632 18.1426 34.9179 18.8672 34.9179 20.3027C34.9042 21.9707 34.8632 22.3672 34.5487 23.4199C34.3436 24.0762 34.0155 24.9375 33.8241 25.334C33.619 25.7168 33.2089 26.414 32.9081 26.8652C32.6073 27.3164 31.9647 28.0683 30.6249 29.3945V31.9922C30.6249 33.414 30.5975 34.6855 30.5565 34.7949C30.511 34.9316 30.3059 35 29.9413 35C29.4628 35 29.0936 34.7949 24.8827 31.8554H23.4472C22.6542 31.8554 21.5331 31.7597 20.9452 31.6367C20.371 31.5137 19.4276 31.2265 18.8671 30.9941C18.3065 30.7617 17.4042 30.2832 16.8847 29.9277C16.3514 29.5722 15.5448 28.8887 15.08 28.4101C14.6014 27.9453 14.0136 27.2617 13.7811 26.9199C13.535 26.5781 13.0975 25.8125 12.8241 25.2109C12.537 24.623 12.1815 23.6387 12.0175 23.0371C11.8124 22.2578 11.7167 21.5058 11.7167 20.3711C11.703 19.2637 11.7714 18.4707 11.9491 17.7051C12.0858 17.1035 12.3866 16.1738 12.6054 15.6543C12.8241 15.1211 13.2889 14.2734 13.6444 13.7402C13.9999 13.2207 14.6561 12.4277 15.1073 11.9765C15.5585 11.539 16.2694 10.9375 16.6796 10.664C17.0897 10.3769 17.828 9.9531 18.3202 9.70701C18.8124 9.46092 19.7557 9.11912 20.4393 8.94139C21.3554 8.70897 22.0663 8.62693 23.2011 8.61326ZM20.4393 10.4453C20.0565 10.5547 19.2636 10.8965 18.662 11.1972C17.9237 11.5527 17.2128 12.0586 16.4882 12.7422C15.9003 13.289 15.121 14.2051 14.7518 14.7656C14.3554 15.3672 13.9042 16.3379 13.6444 17.0898C13.2616 18.2656 13.2069 18.5527 13.2069 20.0976C13.1932 21.3144 13.2616 22.0664 13.4393 22.6953C13.5624 23.1875 13.9452 24.1308 14.2733 24.8144C14.6972 25.6758 15.162 26.3457 15.8182 27.0566C16.3241 27.6172 17.0897 28.3008 17.4999 28.5742C17.91 28.8476 18.5116 29.2168 18.8261 29.3808C19.1542 29.5312 19.9472 29.8183 20.6034 30.0097C21.6151 30.3105 22.08 30.3652 23.5429 30.3515H25.2929L29.0526 32.9492L29.121 28.7109C30.3378 27.6035 30.953 26.9746 31.2675 26.5918C31.5682 26.2226 32.0468 25.5117 32.3065 25.0195C32.58 24.5273 32.9354 23.666 33.1132 23.1054C33.3729 22.2441 33.4276 21.7793 33.4276 20.2344C33.4276 18.6758 33.3729 18.2246 33.1132 17.3633C32.9354 16.8027 32.58 15.9414 32.3202 15.4492C32.0604 14.957 31.5546 14.1914 31.1991 13.7402C30.83 13.289 30.1054 12.6054 29.5858 12.209C29.0663 11.8125 28.246 11.2929 27.7538 11.0605C27.2616 10.8281 26.4276 10.5273 25.9081 10.3906C25.3749 10.2676 24.4862 10.1172 23.9257 10.0898C23.3651 10.0488 22.5038 10.0625 22.0116 10.1308C21.5194 10.1992 20.8085 10.3359 20.4393 10.4453Z" fill="white" stroke="white" stroke-width="2" mask="url(#path-1-inside-1_461_667)"/>
</g>
<path d="M4.296 47.208C4.296 46.664 4.42133 46.176 4.672 45.744C4.928 45.312 5.272 44.976 5.704 44.736C6.14133 44.4907 6.61867 44.368 7.136 44.368C7.728 44.368 8.25333 44.5147 8.712 44.808C9.176 45.096 9.512 45.5067 9.72 46.04H8.624C8.48 45.7467 8.28 45.528 8.024 45.384C7.768 45.24 7.472 45.168 7.136 45.168C6.768 45.168 6.44 45.2507 6.152 45.416C5.864 45.5813 5.63733 45.8187 5.472 46.128C5.312 46.4373 5.232 46.7973 5.232 47.208C5.232 47.6187 5.312 47.9787 5.472 48.288C5.63733 48.5973 5.864 48.8373 6.152 49.008C6.44 49.1733 6.768 49.256 7.136 49.256C7.472 49.256 7.768 49.184 8.024 49.04C8.28 48.896 8.48 48.6773 8.624 48.384H9.72C9.512 48.9173 9.176 49.328 8.712 49.616C8.25333 49.904 7.728 50.048 7.136 50.048C6.61333 50.048 6.136 49.928 5.704 49.688C5.272 49.4427 4.928 49.104 4.672 48.672C4.42133 48.24 4.296 47.752 4.296 47.208ZM12.6995 50.072C12.2835 50.072 11.9075 49.9787 11.5715 49.792C11.2355 49.6 10.9715 49.3333 10.7795 48.992C10.5875 48.6453 10.4915 48.2453 10.4915 47.792C10.4915 47.344 10.5902 46.9467 10.7875 46.6C10.9848 46.2533 11.2542 45.9867 11.5955 45.8C11.9368 45.6133 12.3182 45.52 12.7395 45.52C13.1608 45.52 13.5422 45.6133 13.8835 45.8C14.2248 45.9867 14.4942 46.2533 14.6915 46.6C14.8888 46.9467 14.9875 47.344 14.9875 47.792C14.9875 48.24 14.8862 48.6373 14.6835 48.984C14.4808 49.3307 14.2035 49.6 13.8515 49.792C13.5048 49.9787 13.1208 50.072 12.6995 50.072ZM12.6995 49.28C12.9342 49.28 13.1528 49.224 13.3555 49.112C13.5635 49 13.7315 48.832 13.8595 48.608C13.9875 48.384 14.0515 48.112 14.0515 47.792C14.0515 47.472 13.9902 47.2027 13.8675 46.984C13.7448 46.76 13.5822 46.592 13.3795 46.48C13.1768 46.368 12.9582 46.312 12.7235 46.312C12.4888 46.312 12.2702 46.368 12.0675 46.48C11.8702 46.592 11.7128 46.76 11.5955 46.984C11.4782 47.2027 11.4195 47.472 11.4195 47.792C11.4195 48.2667 11.5395 48.6347 11.7795 48.896C12.0248 49.152 12.3315 49.28 12.6995 49.28ZM15.5851 47.776C15.5851 47.3333 15.6757 46.9413 15.8571 46.6C16.0437 46.2587 16.2944 45.9947 16.6091 45.808C16.9291 45.616 17.2811 45.52 17.6651 45.52C18.0117 45.52 18.3131 45.5893 18.5691 45.728C18.8304 45.8613 19.0384 46.0293 19.1931 46.232V45.592H20.1131V50H19.1931V49.344C19.0384 49.552 18.8277 49.7253 18.5611 49.864C18.2944 50.0027 17.9904 50.072 17.6491 50.072C17.2704 50.072 16.9237 49.976 16.6091 49.784C16.2944 49.5867 16.0437 49.3147 15.8571 48.968C15.6757 48.616 15.5851 48.2187 15.5851 47.776ZM19.1931 47.792C19.1931 47.488 19.1291 47.224 19.0011 47C18.8784 46.776 18.7157 46.6053 18.5131 46.488C18.3104 46.3707 18.0917 46.312 17.8571 46.312C17.6224 46.312 17.4037 46.3707 17.2011 46.488C16.9984 46.6 16.8331 46.768 16.7051 46.992C16.5824 47.2107 16.5211 47.472 16.5211 47.776C16.5211 48.08 16.5824 48.3467 16.7051 48.576C16.8331 48.8053 16.9984 48.9813 17.2011 49.104C17.4091 49.2213 17.6277 49.28 17.8571 49.28C18.0917 49.28 18.3104 49.2213 18.5131 49.104C18.7157 48.9867 18.8784 48.816 19.0011 48.592C19.1291 48.3627 19.1931 48.096 19.1931 47.792ZM21.0069 47.792C21.0069 47.3387 21.0976 46.9413 21.2789 46.6C21.4656 46.2533 21.7216 45.9867 22.0469 45.8C22.3723 45.6133 22.7456 45.52 23.1669 45.52C23.7003 45.52 24.1403 45.648 24.4869 45.904C24.8389 46.1547 25.0763 46.5147 25.1989 46.984H24.2149C24.1349 46.7653 24.0069 46.5947 23.8309 46.472C23.6549 46.3493 23.4336 46.288 23.1669 46.288C22.7936 46.288 22.4949 46.4213 22.2709 46.688C22.0523 46.9493 21.9429 47.3173 21.9429 47.792C21.9429 48.2667 22.0523 48.6373 22.2709 48.904C22.4949 49.1707 22.7936 49.304 23.1669 49.304C23.6949 49.304 24.0443 49.072 24.2149 48.608H25.1989C25.0709 49.056 24.8309 49.4133 24.4789 49.68C24.1269 49.9413 23.6896 50.072 23.1669 50.072C22.7456 50.072 22.3723 49.9787 22.0469 49.792C21.7216 49.6 21.4656 49.3333 21.2789 48.992C21.0976 48.6453 21.0069 48.2453 21.0069 47.792ZM28.3878 45.52C28.7238 45.52 29.0225 45.592 29.2838 45.736C29.5505 45.88 29.7585 46.0933 29.9078 46.376C30.0625 46.6587 30.1398 47 30.1398 47.4V50H29.2358V47.536C29.2358 47.1413 29.1371 46.84 28.9398 46.632C28.7425 46.4187 28.4731 46.312 28.1318 46.312C27.7905 46.312 27.5185 46.4187 27.3158 46.632C27.1185 46.84 27.0198 47.1413 27.0198 47.536V50H26.1078V44.08H27.0198V46.104C27.1745 45.9173 27.3691 45.7733 27.6038 45.672C27.8438 45.5707 28.1051 45.52 28.3878 45.52Z" fill="white"/>
<defs>
<clipPath id="clip0_461_667">
<rect width="35" height="35" fill="white"/>
</clipPath>
</defs>
</svg>
