<svg width="40" height="53" viewBox="0 0 40 53" fill="none" xmlns="http://www.w3.org/2000/svg">
<path d="M32.4785 0.00946225C33.1215 -0.0497379 33.7128 0.172532 34.2132 0.57294C34.7873 1.03255 37.0623 3.3209 37.2947 3.89245C38.0087 5.64531 36.7168 6.58713 35.6186 7.67857C36.1519 8.20814 36.6404 8.58756 36.8298 9.35447C37.2995 11.2569 35.6385 11.9867 34.6108 13.2375C35.4518 14.816 35.2016 16.7889 33.6133 17.7749C30.8788 19.4723 29.1124 16.6894 27.383 15.0576L17.5886 24.8541C18.562 26.0424 20.6196 27.291 20.7864 28.9147C21.0188 31.1789 18.8639 33.1782 16.6325 32.4447C16.4151 32.3731 15.9379 32.0426 15.7689 32.0857C14.4318 33.2401 13.4961 35.0877 11.4208 34.1442C10.9344 33.9231 10.6003 33.4414 10.2107 33.0921C9.08401 34.3111 7.69634 35.7653 5.96162 34.5301C5.41979 34.1442 3.50213 32.1976 3.0706 31.6444C1.69101 29.8754 3.08298 28.4449 4.39424 27.2743C3.85133 26.7389 3.38214 26.3713 3.18521 25.5963C2.70418 23.703 4.3824 22.9624 5.39988 21.7149C5.44346 21.5459 5.11255 21.0686 5.04099 20.8511C4.27102 18.5084 6.47009 16.282 8.83327 16.7459C10.2914 17.0322 11.5112 18.9874 12.6304 19.8948L22.4248 10.0982C20.9166 8.39381 18.4146 7.07849 19.446 4.38543C20.0212 2.88444 21.5192 2.20363 23.0688 2.42859C23.4955 2.49049 23.8356 2.76711 24.244 2.86883C25.4885 1.84843 26.2326 0.170379 28.1245 0.651514C28.8993 0.848489 29.2668 1.31779 29.8022 1.86081C30.6222 1.08906 31.2533 0.122481 32.4785 0.00946225ZM32.4763 1.25428C31.8506 1.34523 31.199 2.37424 30.7013 2.75958L34.7195 6.77873C35.5417 5.81107 36.9326 5.27289 35.8134 3.89084C35.3744 3.34835 34.1303 2.096 33.5891 1.66599C33.2555 1.4012 32.9289 1.18862 32.4763 1.25428ZM27.4718 1.81184C27.2372 1.82152 26.9499 1.95984 26.7583 2.09654C26.6109 2.20202 25.2426 3.55985 25.192 3.65834C25.1608 3.71862 25.1398 3.75414 25.192 3.81334L33.821 12.2892C34.4279 11.5077 36.1411 10.5691 35.5293 9.4056L27.9695 1.9001C27.8113 1.87427 27.6289 1.80538 27.4718 1.81184ZM22.0153 3.6761C20.5232 3.93228 19.9884 5.91387 21.0226 6.97409C24.2251 9.83614 27.1156 13.534 30.3461 16.3073C32.578 18.2232 34.8347 15.6684 33.4293 13.8478C30.0405 10.5282 26.7836 7.04136 23.3018 3.83487C22.9144 3.65242 22.4382 3.60345 22.0148 3.6761H22.0153ZM23.2566 11.0018L13.5338 20.7268L16.7003 23.9505L26.4796 14.2256L23.2566 11.0018ZM7.73185 17.9638C6.33396 18.1882 5.66891 20.0272 6.58308 21.1046L16.3769 30.9044C18.4469 32.2951 20.6233 29.7914 18.9537 27.9368L9.54836 18.5294C9.03881 18.0703 8.42757 17.8524 7.73185 17.9638ZM6.24034 22.6347C5.60865 23.407 3.86478 24.3719 4.48302 25.5473L12.0428 33.0528C12.4297 33.1771 12.695 33.1599 13.0549 32.9694C13.3083 32.8354 14.6094 31.5863 14.781 31.3365C14.8284 31.2677 14.8929 31.2305 14.8198 31.1396L6.2398 22.6347H6.24034ZM5.29334 28.1736C4.47172 29.1408 3.08029 29.6789 4.19946 31.0615C4.54705 31.491 6.43888 33.3886 6.84082 33.5727C7.99496 34.1007 8.54379 32.8004 9.31161 32.1928L5.29334 28.1736Z" fill="white"/>
<path d="M10.84 44.44L9.192 50H8.16L6.992 45.792L5.752 50L4.728 50.008L3.152 44.44H4.12L5.272 48.968L6.52 44.44H7.544L8.704 48.944L9.864 44.44H10.84ZM13.5042 50.072C13.0882 50.072 12.7122 49.9787 12.3762 49.792C12.0402 49.6 11.7762 49.3333 11.5842 48.992C11.3922 48.6453 11.2962 48.2453 11.2962 47.792C11.2962 47.344 11.3949 46.9467 11.5922 46.6C11.7895 46.2533 12.0589 45.9867 12.4002 45.8C12.7415 45.6133 13.1229 45.52 13.5442 45.52C13.9655 45.52 14.3469 45.6133 14.6882 45.8C15.0295 45.9867 15.2989 46.2533 15.4962 46.6C15.6935 46.9467 15.7922 47.344 15.7922 47.792C15.7922 48.24 15.6909 48.6373 15.4882 48.984C15.2855 49.3307 15.0082 49.6 14.6562 49.792C14.3095 49.9787 13.9255 50.072 13.5042 50.072ZM13.5042 49.28C13.7389 49.28 13.9575 49.224 14.1602 49.112C14.3682 49 14.5362 48.832 14.6642 48.608C14.7922 48.384 14.8562 48.112 14.8562 47.792C14.8562 47.472 14.7949 47.2027 14.6722 46.984C14.5495 46.76 14.3869 46.592 14.1842 46.48C13.9815 46.368 13.7629 46.312 13.5282 46.312C13.2935 46.312 13.0749 46.368 12.8722 46.48C12.6749 46.592 12.5175 46.76 12.4002 46.984C12.2829 47.2027 12.2242 47.472 12.2242 47.792C12.2242 48.2667 12.3442 48.6347 12.5842 48.896C12.8295 49.152 13.1362 49.28 13.5042 49.28ZM17.6058 46.232C17.7391 46.008 17.9151 45.8347 18.1338 45.712C18.3578 45.584 18.6218 45.52 18.9258 45.52V46.464H18.6938C18.3364 46.464 18.0644 46.5547 17.8778 46.736C17.6964 46.9173 17.6058 47.232 17.6058 47.68V50H16.6938V45.592H17.6058V46.232ZM21.5081 47.8L23.5401 50H22.3081L20.6761 48.104V50H19.7641V44.08H20.6761V47.52L22.2761 45.592H23.5401L21.5081 47.8ZM26.1058 50.072C25.6898 50.072 25.3138 49.9787 24.9778 49.792C24.6418 49.6 24.3778 49.3333 24.1858 48.992C23.9938 48.6453 23.8978 48.2453 23.8978 47.792C23.8978 47.344 23.9964 46.9467 24.1938 46.6C24.3911 46.2533 24.6604 45.9867 25.0018 45.8C25.3431 45.6133 25.7244 45.52 26.1458 45.52C26.5671 45.52 26.9484 45.6133 27.2898 45.8C27.6311 45.9867 27.9004 46.2533 28.0978 46.6C28.2951 46.9467 28.3938 47.344 28.3938 47.792C28.3938 48.24 28.2924 48.6373 28.0898 48.984C27.8871 49.3307 27.6098 49.6 27.2578 49.792C26.9111 49.9787 26.5271 50.072 26.1058 50.072ZM26.1058 49.28C26.3404 49.28 26.5591 49.224 26.7618 49.112C26.9698 49 27.1378 48.832 27.2658 48.608C27.3938 48.384 27.4578 48.112 27.4578 47.792C27.4578 47.472 27.3964 47.2027 27.2738 46.984C27.1511 46.76 26.9884 46.592 26.7858 46.48C26.5831 46.368 26.3644 46.312 26.1298 46.312C25.8951 46.312 25.6764 46.368 25.4738 46.48C25.2764 46.592 25.1191 46.76 25.0018 46.984C24.8844 47.2027 24.8258 47.472 24.8258 47.792C24.8258 48.2667 24.9458 48.6347 25.1858 48.896C25.4311 49.152 25.7378 49.28 26.1058 49.28ZM33.2873 45.592V50H32.3753V49.48C32.2313 49.6613 32.042 49.8053 31.8073 49.912C31.578 50.0133 31.3326 50.064 31.0713 50.064C30.7246 50.064 30.4126 49.992 30.1353 49.848C29.8633 49.704 29.6473 49.4907 29.4873 49.208C29.3326 48.9253 29.2553 48.584 29.2553 48.184V45.592H30.1593V48.048C30.1593 48.4427 30.258 48.7467 30.4553 48.96C30.6526 49.168 30.922 49.272 31.2633 49.272C31.6046 49.272 31.874 49.168 32.0713 48.96C32.274 48.7467 32.3753 48.4427 32.3753 48.048V45.592H33.2873ZM35.5546 46.336V48.776C35.5546 48.9413 35.592 49.0613 35.6666 49.136C35.7466 49.2053 35.88 49.24 36.0666 49.24H36.6266V50H35.9066C35.496 50 35.1813 49.904 34.9626 49.712C34.744 49.52 34.6346 49.208 34.6346 48.776V46.336H34.1146V45.592H34.6346V44.496H35.5546V45.592H36.6266V46.336H35.5546Z" fill="white"/>
</svg>
