<svg width="41" height="57" viewBox="0 0 41 57" fill="none" xmlns="http://www.w3.org/2000/svg">
<path d="M27.8125 9.74999C25.3552 9.52986 22.9375 10.9687 20.5 10.9687C18.0625 10.9687 15.644 9.52148 13.1875 9.74999C8.3125 10.207 5.875 14.625 5.875 21.9375C5.875 28.0312 10.75 36.5625 14.3453 36.5625C17.9406 36.5625 18.3017 34.7344 20.5 34.7344C22.6983 34.7344 23.0586 36.5625 26.6547 36.5625C30.2508 36.5625 35.125 28.0312 35.125 21.9375C35.125 14.625 32.916 10.207 27.8125 9.74999Z" stroke="white" stroke-width="2" stroke-miterlimit="10"/>
<path d="M25.6736 6.33295C24.074 7.93256 22.1956 8.38959 21.1931 8.52594C21.1015 8.53915 21.008 8.5313 20.9199 8.50299C20.8317 8.47467 20.7512 8.42664 20.6843 8.36254C20.6175 8.29843 20.5662 8.21995 20.5342 8.13304C20.5023 8.04612 20.4906 7.95308 20.5 7.86096C20.6808 6.14752 21.4511 4.55007 22.6792 3.34168C24.355 1.6659 26.1832 1.29266 27.1521 1.22029C27.2425 1.21204 27.3337 1.22411 27.4189 1.25562C27.504 1.28714 27.5811 1.33729 27.6444 1.40242C27.7077 1.46755 27.7557 1.54601 27.7847 1.63206C27.8138 1.71811 27.8233 1.80957 27.8125 1.89975C27.6212 3.5768 26.8672 5.13954 25.6736 6.33295Z" fill="white"/>
<path d="M17.4531 26.8125C18.4628 26.8125 19.2812 25.1755 19.2812 23.1562C19.2812 21.137 18.4628 19.5 17.4531 19.5C16.4435 19.5 15.625 21.137 15.625 23.1562C15.625 25.1755 16.4435 26.8125 17.4531 26.8125Z" fill="white"/>
<path d="M23.5469 26.8125C24.5565 26.8125 25.375 25.1755 25.375 23.1562C25.375 21.137 24.5565 19.5 23.5469 19.5C22.5372 19.5 21.7188 21.137 21.7188 23.1562C21.7188 25.1755 22.5372 26.8125 23.5469 26.8125Z" fill="white"/>
<path d="M8.168 54H7.256L4.512 49.848V54H3.6V48.432H4.512L7.256 52.576V48.432H8.168V54ZM13.3576 49.592V54H12.4456V53.48C12.3016 53.6613 12.1123 53.8053 11.8776 53.912C11.6483 54.0133 11.403 54.064 11.1416 54.064C10.795 54.064 10.483 53.992 10.2056 53.848C9.93363 53.704 9.71763 53.4907 9.55763 53.208C9.40296 52.9253 9.32563 52.584 9.32563 52.184V49.592H10.2296V52.048C10.2296 52.4427 10.3283 52.7467 10.5256 52.96C10.723 53.168 10.9923 53.272 11.3336 53.272C11.675 53.272 11.9443 53.168 12.1416 52.96C12.3443 52.7467 12.4456 52.4427 12.4456 52.048V49.592H13.3576ZM15.6249 50.336V52.776C15.6249 52.9413 15.6623 53.0613 15.7369 53.136C15.8169 53.2053 15.9503 53.24 16.1369 53.24H16.6969V54H15.9769C15.5663 54 15.2516 53.904 15.0329 53.712C14.8143 53.52 14.7049 53.208 14.7049 52.776V50.336H14.1849V49.592H14.7049V48.496H15.6249V49.592H16.6969V50.336H15.6249ZM18.4495 50.232C18.5828 50.008 18.7588 49.8347 18.9775 49.712C19.2015 49.584 19.4655 49.52 19.7695 49.52V50.464H19.5375C19.1802 50.464 18.9082 50.5547 18.7215 50.736C18.5402 50.9173 18.4495 51.232 18.4495 51.68V54H17.5375V49.592H18.4495V50.232ZM21.0718 49.008C20.9065 49.008 20.7678 48.952 20.6558 48.84C20.5438 48.728 20.4878 48.5893 20.4878 48.424C20.4878 48.2587 20.5438 48.12 20.6558 48.008C20.7678 47.896 20.9065 47.84 21.0718 47.84C21.2318 47.84 21.3678 47.896 21.4798 48.008C21.5918 48.12 21.6478 48.2587 21.6478 48.424C21.6478 48.5893 21.5918 48.728 21.4798 48.84C21.3678 48.952 21.2318 49.008 21.0718 49.008ZM21.5198 49.592V54H20.6078V49.592H21.5198ZM23.7812 50.336V52.776C23.7812 52.9413 23.8185 53.0613 23.8932 53.136C23.9732 53.2053 24.1065 53.24 24.2932 53.24H24.8532V54H24.1332C23.7225 54 23.4079 53.904 23.1892 53.712C22.9705 53.52 22.8612 53.208 22.8612 52.776V50.336H22.3412V49.592H22.8612V48.496H23.7812V49.592H24.8532V50.336H23.7812ZM26.1578 49.008C25.9924 49.008 25.8538 48.952 25.7418 48.84C25.6298 48.728 25.5738 48.5893 25.5738 48.424C25.5738 48.2587 25.6298 48.12 25.7418 48.008C25.8538 47.896 25.9924 47.84 26.1578 47.84C26.3178 47.84 26.4538 47.896 26.5658 48.008C26.6778 48.12 26.7338 48.2587 26.7338 48.424C26.7338 48.5893 26.6778 48.728 26.5658 48.84C26.4538 48.952 26.3178 49.008 26.1578 49.008ZM26.6058 49.592V54H25.6938V49.592H26.6058ZM29.7151 54.072C29.2991 54.072 28.9231 53.9787 28.5871 53.792C28.2511 53.6 27.9871 53.3333 27.7951 52.992C27.6031 52.6453 27.5071 52.2453 27.5071 51.792C27.5071 51.344 27.6058 50.9467 27.8031 50.6C28.0005 50.2533 28.2698 49.9867 28.6111 49.8C28.9525 49.6133 29.3338 49.52 29.7551 49.52C30.1765 49.52 30.5578 49.6133 30.8991 49.8C31.2405 49.9867 31.5098 50.2533 31.7071 50.6C31.9045 50.9467 32.0031 51.344 32.0031 51.792C32.0031 52.24 31.9018 52.6373 31.6991 52.984C31.4965 53.3307 31.2191 53.6 30.8671 53.792C30.5205 53.9787 30.1365 54.072 29.7151 54.072ZM29.7151 53.28C29.9498 53.28 30.1685 53.224 30.3711 53.112C30.5791 53 30.7471 52.832 30.8751 52.608C31.0031 52.384 31.0671 52.112 31.0671 51.792C31.0671 51.472 31.0058 51.2027 30.8831 50.984C30.7605 50.76 30.5978 50.592 30.3951 50.48C30.1925 50.368 29.9738 50.312 29.7391 50.312C29.5045 50.312 29.2858 50.368 29.0831 50.48C28.8858 50.592 28.7285 50.76 28.6111 50.984C28.4938 51.2027 28.4351 51.472 28.4351 51.792C28.4351 52.2667 28.5551 52.6347 28.7951 52.896C29.0405 53.152 29.3471 53.28 29.7151 53.28ZM35.1287 49.52C35.4754 49.52 35.7847 49.592 36.0567 49.736C36.334 49.88 36.55 50.0933 36.7047 50.376C36.8594 50.6587 36.9367 51 36.9367 51.4V54H36.0327V51.536C36.0327 51.1413 35.934 50.84 35.7367 50.632C35.5394 50.4187 35.27 50.312 34.9287 50.312C34.5874 50.312 34.3154 50.4187 34.1127 50.632C33.9154 50.84 33.8167 51.1413 33.8167 51.536V54H32.9047V49.592H33.8167V50.096C33.966 49.9147 34.1554 49.7733 34.3847 49.672C34.6194 49.5707 34.8674 49.52 35.1287 49.52Z" fill="white"/>
</svg>
