<svg width="35" height="53" viewBox="0 0 35 53" fill="none" xmlns="http://www.w3.org/2000/svg">
<g clip-path="url(#clip0_461_666)">
<path d="M7.65625 35C4.03188 35 1.09375 32.0619 1.09375 28.4375V15.3577C1.09375 13.2667 2.09019 11.3009 3.77665 10.0648L13.6265 2.84507C15.9368 1.15165 19.0786 1.15238 21.3881 2.84687L31.2258 10.0647C32.9108 11.3009 33.9062 13.2659 33.9062 15.3558V28.4375C33.9062 32.0619 30.9681 35 27.3438 35H7.65625ZM15.1236 4.46853L14.9197 4.60938L5.06985 11.8291C4.01168 12.6047 3.36099 13.8112 3.2881 15.1127L3.28125 15.3577V28.4375C3.28125 30.7806 5.12309 32.6934 7.43789 32.8072L7.65625 32.8125L12.0312 32.8119V27.3438C12.0312 24.3235 14.4797 21.875 17.5 21.875C20.5203 21.875 22.9688 24.3235 22.9688 27.3438V32.8119L27.3438 32.8125C29.6868 32.8125 31.5996 30.9707 31.7134 28.6559L31.7188 28.4375V15.3558C31.7188 14.0445 31.1309 12.807 30.1252 11.9788L29.9318 11.8284L20.0941 4.61058C18.6214 3.53003 16.641 3.48261 15.1236 4.46853ZM17.5 24.0625C15.7525 24.0625 14.3241 25.4285 14.2243 27.151L14.2188 27.3438V32.8125H20.7812V27.3438C20.7812 25.5963 19.4152 24.1679 17.6928 24.0681L17.5 24.0625Z" fill="white"/>
</g>
<path d="M10.54 44.44V50H9.628V47.568H7.012V50H6.1V44.44H7.012V46.824H9.628V44.44H10.54ZM13.6526 50.072C13.2366 50.072 12.8606 49.9787 12.5246 49.792C12.1886 49.6 11.9246 49.3333 11.7326 48.992C11.5406 48.6453 11.4446 48.2453 11.4446 47.792C11.4446 47.344 11.5433 46.9467 11.7406 46.6C11.938 46.2533 12.2073 45.9867 12.5486 45.8C12.89 45.6133 13.2713 45.52 13.6926 45.52C14.114 45.52 14.4953 45.6133 14.8366 45.8C15.178 45.9867 15.4473 46.2533 15.6446 46.6C15.842 46.9467 15.9406 47.344 15.9406 47.792C15.9406 48.24 15.8393 48.6373 15.6366 48.984C15.434 49.3307 15.1566 49.6 14.8046 49.792C14.458 49.9787 14.074 50.072 13.6526 50.072ZM13.6526 49.28C13.8873 49.28 14.106 49.224 14.3086 49.112C14.5166 49 14.6846 48.832 14.8126 48.608C14.9406 48.384 15.0046 48.112 15.0046 47.792C15.0046 47.472 14.9433 47.2027 14.8206 46.984C14.698 46.76 14.5353 46.592 14.3326 46.48C14.13 46.368 13.9113 46.312 13.6766 46.312C13.442 46.312 13.2233 46.368 13.0206 46.48C12.8233 46.592 12.666 46.76 12.5486 46.984C12.4313 47.2027 12.3726 47.472 12.3726 47.792C12.3726 48.2667 12.4926 48.6347 12.7326 48.896C12.978 49.152 13.2846 49.28 13.6526 49.28ZM22.1782 45.52C22.5249 45.52 22.8342 45.592 23.1062 45.736C23.3835 45.88 23.5995 46.0933 23.7542 46.376C23.9142 46.6587 23.9942 47 23.9942 47.4V50H23.0902V47.536C23.0902 47.1413 22.9915 46.84 22.7942 46.632C22.5969 46.4187 22.3275 46.312 21.9862 46.312C21.6449 46.312 21.3729 46.4187 21.1702 46.632C20.9729 46.84 20.8742 47.1413 20.8742 47.536V50H19.9702V47.536C19.9702 47.1413 19.8715 46.84 19.6742 46.632C19.4769 46.4187 19.2075 46.312 18.8662 46.312C18.5249 46.312 18.2529 46.4187 18.0502 46.632C17.8529 46.84 17.7542 47.1413 17.7542 47.536V50H16.8422V45.592H17.7542V46.096C17.9035 45.9147 18.0929 45.7733 18.3222 45.672C18.5515 45.5707 18.7969 45.52 19.0582 45.52C19.4102 45.52 19.7249 45.5947 20.0022 45.744C20.2795 45.8933 20.4929 46.1093 20.6422 46.392C20.7755 46.1253 20.9835 45.9147 21.2662 45.76C21.5489 45.6 21.8529 45.52 22.1782 45.52ZM29.1947 47.688C29.1947 47.8533 29.184 48.0027 29.1627 48.136H25.7947C25.8214 48.488 25.952 48.7707 26.1867 48.984C26.4214 49.1973 26.7094 49.304 27.0507 49.304C27.5414 49.304 27.888 49.0987 28.0907 48.688H29.0747C28.9414 49.0933 28.6987 49.4267 28.3467 49.688C28 49.944 27.568 50.072 27.0507 50.072C26.6294 50.072 26.2507 49.9787 25.9147 49.792C25.584 49.6 25.3227 49.3333 25.1307 48.992C24.944 48.6453 24.8507 48.2453 24.8507 47.792C24.8507 47.3387 24.9414 46.9413 25.1227 46.6C25.3094 46.2533 25.568 45.9867 25.8987 45.8C26.2347 45.6133 26.6187 45.52 27.0507 45.52C27.4667 45.52 27.8374 45.6107 28.1627 45.792C28.488 45.9733 28.7414 46.2293 28.9227 46.56C29.104 46.8853 29.1947 47.2613 29.1947 47.688ZM28.2427 47.4C28.2374 47.064 28.1174 46.7947 27.8827 46.592C27.648 46.3893 27.3574 46.288 27.0107 46.288C26.696 46.288 26.4267 46.3893 26.2027 46.592C25.9787 46.7893 25.8454 47.0587 25.8027 47.4H28.2427Z" fill="white"/>
<defs>
<clipPath id="clip0_461_666">
<rect width="35" height="35" fill="white"/>
</clipPath>
</defs>
</svg>
