<svg width="41" height="53" viewBox="0 0 41 53" fill="none" xmlns="http://www.w3.org/2000/svg">
<rect x="5.36353" y="17.4394" width="5.42424" height="16.5606" rx="2.71212" stroke="white" stroke-width="2"/>
<rect x="17.7878" y="7.89392" width="5.42424" height="26.106" rx="2.71212" stroke="white" stroke-width="2"/>
<rect x="30.2119" y="1" width="5.42424" height="33" rx="2.71212" stroke="white" stroke-width="2"/>
<path d="M7.488 46.096C7.488 46.3787 7.42133 46.6453 7.288 46.896C7.15467 47.1467 6.94133 47.352 6.648 47.512C6.35467 47.6667 5.97867 47.744 5.52 47.744H4.512V50H3.6V44.44H5.52C5.94667 44.44 6.30667 44.5147 6.6 44.664C6.89867 44.808 7.12 45.0053 7.264 45.256C7.41333 45.5067 7.488 45.7867 7.488 46.096ZM5.52 47C5.86667 47 6.12533 46.9227 6.296 46.768C6.46667 46.608 6.552 46.384 6.552 46.096C6.552 45.488 6.208 45.184 5.52 45.184H4.512V47H5.52ZM9.26981 46.232C9.40315 46.008 9.57915 45.8347 9.79781 45.712C10.0218 45.584 10.2858 45.52 10.5898 45.52V46.464H10.3578C10.0005 46.464 9.72848 46.5547 9.54181 46.736C9.36048 46.9173 9.26981 47.232 9.26981 47.68V50H8.35781V45.592H9.26981V46.232ZM13.3401 50.072C12.9241 50.072 12.5481 49.9787 12.2121 49.792C11.8761 49.6 11.6121 49.3333 11.4201 48.992C11.2281 48.6453 11.1321 48.2453 11.1321 47.792C11.1321 47.344 11.2308 46.9467 11.4281 46.6C11.6255 46.2533 11.8948 45.9867 12.2361 45.8C12.5775 45.6133 12.9588 45.52 13.3801 45.52C13.8015 45.52 14.1828 45.6133 14.5241 45.8C14.8655 45.9867 15.1348 46.2533 15.3321 46.6C15.5295 46.9467 15.6281 47.344 15.6281 47.792C15.6281 48.24 15.5268 48.6373 15.3241 48.984C15.1215 49.3307 14.8441 49.6 14.4921 49.792C14.1455 49.9787 13.7615 50.072 13.3401 50.072ZM13.3401 49.28C13.5748 49.28 13.7935 49.224 13.9961 49.112C14.2041 49 14.3721 48.832 14.5001 48.608C14.6281 48.384 14.6921 48.112 14.6921 47.792C14.6921 47.472 14.6308 47.2027 14.5081 46.984C14.3855 46.76 14.2228 46.592 14.0201 46.48C13.8175 46.368 13.5988 46.312 13.3641 46.312C13.1295 46.312 12.9108 46.368 12.7081 46.48C12.5108 46.592 12.3535 46.76 12.2361 46.984C12.1188 47.2027 12.0601 47.472 12.0601 47.792C12.0601 48.2667 12.1801 48.6347 12.4201 48.896C12.6655 49.152 12.9721 49.28 13.3401 49.28ZM18.3057 45.52C18.647 45.52 18.9484 45.5893 19.2097 45.728C19.4764 45.8613 19.6844 46.0293 19.8337 46.232V45.592H20.7537V50.072C20.7537 50.4773 20.6684 50.8373 20.4977 51.152C20.327 51.472 20.079 51.7227 19.7537 51.904C19.4337 52.0853 19.0497 52.176 18.6017 52.176C18.0044 52.176 17.5084 52.0347 17.1137 51.752C16.719 51.4747 16.495 51.096 16.4417 50.616H17.3457C17.415 50.8453 17.5617 51.0293 17.7857 51.168C18.015 51.312 18.287 51.384 18.6017 51.384C18.9697 51.384 19.2657 51.272 19.4897 51.048C19.719 50.824 19.8337 50.4987 19.8337 50.072V49.336C19.679 49.544 19.4684 49.72 19.2017 49.864C18.9404 50.0027 18.6417 50.072 18.3057 50.072C17.9217 50.072 17.5697 49.976 17.2497 49.784C16.935 49.5867 16.6844 49.3147 16.4977 48.968C16.3164 48.616 16.2257 48.2187 16.2257 47.776C16.2257 47.3333 16.3164 46.9413 16.4977 46.6C16.6844 46.2587 16.935 45.9947 17.2497 45.808C17.5697 45.616 17.9217 45.52 18.3057 45.52ZM19.8337 47.792C19.8337 47.488 19.7697 47.224 19.6417 47C19.519 46.776 19.3564 46.6053 19.1537 46.488C18.951 46.3707 18.7324 46.312 18.4977 46.312C18.263 46.312 18.0444 46.3707 17.8417 46.488C17.639 46.6 17.4737 46.768 17.3457 46.992C17.223 47.2107 17.1617 47.472 17.1617 47.776C17.1617 48.08 17.223 48.3467 17.3457 48.576C17.4737 48.8053 17.639 48.9813 17.8417 49.104C18.0497 49.2213 18.2684 49.28 18.4977 49.28C18.7324 49.28 18.951 49.2213 19.1537 49.104C19.3564 48.9867 19.519 48.816 19.6417 48.592C19.7697 48.3627 19.8337 48.096 19.8337 47.792ZM22.8636 46.232C22.9969 46.008 23.1729 45.8347 23.3916 45.712C23.6156 45.584 23.8796 45.52 24.1836 45.52V46.464H23.9516C23.5942 46.464 23.3222 46.5547 23.1356 46.736C22.9542 46.9173 22.8636 47.232 22.8636 47.68V50H21.9516V45.592H22.8636V46.232ZM29.0619 47.688C29.0619 47.8533 29.0512 48.0027 29.0299 48.136H25.6619C25.6885 48.488 25.8192 48.7707 26.0539 48.984C26.2885 49.1973 26.5765 49.304 26.9179 49.304C27.4085 49.304 27.7552 49.0987 27.9579 48.688H28.9419C28.8085 49.0933 28.5659 49.4267 28.2139 49.688C27.8672 49.944 27.4352 50.072 26.9179 50.072C26.4965 50.072 26.1179 49.9787 25.7819 49.792C25.4512 49.6 25.1899 49.3333 24.9979 48.992C24.8112 48.6453 24.7179 48.2453 24.7179 47.792C24.7179 47.3387 24.8085 46.9413 24.9899 46.6C25.1765 46.2533 25.4352 45.9867 25.7659 45.8C26.1019 45.6133 26.4859 45.52 26.9179 45.52C27.3339 45.52 27.7045 45.6107 28.0299 45.792C28.3552 45.9733 28.6085 46.2293 28.7899 46.56C28.9712 46.8853 29.0619 47.2613 29.0619 47.688ZM28.1099 47.4C28.1045 47.064 27.9845 46.7947 27.7499 46.592C27.5152 46.3893 27.2245 46.288 26.8779 46.288C26.5632 46.288 26.2939 46.3893 26.0699 46.592C25.8459 46.7893 25.7125 47.0587 25.6699 47.4H28.1099ZM31.5594 50.072C31.2127 50.072 30.9007 50.0107 30.6234 49.888C30.3514 49.76 30.1354 49.5893 29.9754 49.376C29.8154 49.1573 29.73 48.9147 29.7194 48.648H30.6634C30.6794 48.8347 30.7674 48.992 30.9274 49.12C31.0927 49.2427 31.298 49.304 31.5434 49.304C31.7994 49.304 31.9967 49.256 32.1354 49.16C32.2794 49.0587 32.3514 48.9307 32.3514 48.776C32.3514 48.6107 32.2714 48.488 32.1114 48.408C31.9567 48.328 31.7087 48.24 31.3674 48.144C31.0367 48.0533 30.7674 47.9653 30.5594 47.88C30.3514 47.7947 30.17 47.664 30.0154 47.488C29.866 47.312 29.7914 47.08 29.7914 46.792C29.7914 46.5573 29.8607 46.344 29.9994 46.152C30.138 45.9547 30.3354 45.8 30.5914 45.688C30.8527 45.576 31.1514 45.52 31.4874 45.52C31.9887 45.52 32.3914 45.648 32.6954 45.904C33.0047 46.1547 33.17 46.4987 33.1914 46.936H32.2794C32.2634 46.7387 32.1834 46.5813 32.0394 46.464C31.8954 46.3467 31.7007 46.288 31.4554 46.288C31.2154 46.288 31.0314 46.3333 30.9034 46.424C30.7754 46.5147 30.7114 46.6347 30.7114 46.784C30.7114 46.9013 30.754 47 30.8394 47.08C30.9247 47.16 31.0287 47.224 31.1514 47.272C31.274 47.3147 31.4554 47.3707 31.6954 47.44C32.0154 47.5253 32.2767 47.6133 32.4794 47.704C32.6874 47.7893 32.866 47.9173 33.0154 48.088C33.1647 48.2587 33.242 48.4853 33.2474 48.768C33.2474 49.0187 33.178 49.2427 33.0394 49.44C32.9007 49.6373 32.7034 49.792 32.4474 49.904C32.1967 50.016 31.9007 50.072 31.5594 50.072ZM35.8328 50.072C35.4861 50.072 35.1741 50.0107 34.8968 49.888C34.6248 49.76 34.4088 49.5893 34.2488 49.376C34.0888 49.1573 34.0035 48.9147 33.9928 48.648H34.9368C34.9528 48.8347 35.0408 48.992 35.2008 49.12C35.3661 49.2427 35.5715 49.304 35.8168 49.304C36.0728 49.304 36.2701 49.256 36.4088 49.16C36.5528 49.0587 36.6248 48.9307 36.6248 48.776C36.6248 48.6107 36.5448 48.488 36.3848 48.408C36.2301 48.328 35.9821 48.24 35.6408 48.144C35.3101 48.0533 35.0408 47.9653 34.8328 47.88C34.6248 47.7947 34.4435 47.664 34.2888 47.488C34.1395 47.312 34.0648 47.08 34.0648 46.792C34.0648 46.5573 34.1341 46.344 34.2728 46.152C34.4115 45.9547 34.6088 45.8 34.8648 45.688C35.1261 45.576 35.4248 45.52 35.7608 45.52C36.2621 45.52 36.6648 45.648 36.9688 45.904C37.2781 46.1547 37.4435 46.4987 37.4648 46.936H36.5528C36.5368 46.7387 36.4568 46.5813 36.3128 46.464C36.1688 46.3467 35.9741 46.288 35.7288 46.288C35.4888 46.288 35.3048 46.3333 35.1768 46.424C35.0488 46.5147 34.9848 46.6347 34.9848 46.784C34.9848 46.9013 35.0275 47 35.1128 47.08C35.1981 47.16 35.3021 47.224 35.4248 47.272C35.5475 47.3147 35.7288 47.3707 35.9688 47.44C36.2888 47.5253 36.5501 47.6133 36.7528 47.704C36.9608 47.7893 37.1395 47.9173 37.2888 48.088C37.4381 48.2587 37.5155 48.4853 37.5208 48.768C37.5208 49.0187 37.4515 49.2427 37.3128 49.44C37.1741 49.6373 36.9768 49.792 36.7208 49.904C36.4701 50.016 36.1741 50.072 35.8328 50.072Z" fill="white"/>
</svg>
