<svg width="440" height="90" viewBox="0 0 440 90" fill="none" xmlns="http://www.w3.org/2000/svg">
<rect width="440" height="90" rx="45" fill="#212121"/>
<path d="M75.4785 19.0095C76.1215 18.9503 76.7128 19.1725 77.2132 19.5729C77.7873 20.0325 80.0623 22.3209 80.2947 22.8925C81.0087 24.6453 79.7168 25.5871 78.6186 26.6786C79.1519 27.2081 79.6404 27.5876 79.8298 28.3545C80.2995 30.2569 78.6385 30.9867 77.6108 32.2375C78.4518 33.816 78.2016 35.7889 76.6133 36.7749C73.8788 38.4723 72.1124 35.6894 70.383 34.0576L60.5886 43.8541C61.562 45.0424 63.6196 46.291 63.7864 47.9147C64.0188 50.1789 61.8639 52.1782 59.6325 51.4447C59.4151 51.3731 58.9379 51.0426 58.7689 51.0857C57.4318 52.2401 56.4961 54.0877 54.4208 53.1442C53.9344 52.9231 53.6003 52.4414 53.2107 52.0921C52.084 53.3111 50.6963 54.7653 48.9616 53.5301C48.4198 53.1442 46.5021 51.1976 46.0706 50.6444C44.691 48.8754 46.083 47.4449 47.3942 46.2743C46.8513 45.7389 46.3821 45.3713 46.1852 44.5963C45.7042 42.703 47.3824 41.9624 48.3999 40.7149C48.4435 40.5459 48.1126 40.0686 48.041 39.8511C47.271 37.5084 49.4701 35.282 51.8333 35.7459C53.2914 36.0322 54.5112 37.9874 55.6304 38.8948L65.4248 29.0982C63.9166 27.3938 61.4146 26.0785 62.446 23.3854C63.0212 21.8844 64.5192 21.2036 66.0688 21.4286C66.4955 21.4905 66.8356 21.7671 67.244 21.8688C68.4885 20.8484 69.2326 19.1704 71.1245 19.6515C71.8993 19.8485 72.2668 20.3178 72.8022 20.8608C73.6222 20.0891 74.2533 19.1225 75.4785 19.0095ZM75.4763 20.2543C74.8506 20.3452 74.199 21.3742 73.7013 21.7596L77.7195 25.7787C78.5417 24.8111 79.9326 24.2729 78.8134 22.8908C78.3744 22.3483 77.1303 21.096 76.5891 20.666C76.2555 20.4012 75.9289 20.1886 75.4763 20.2543ZM70.4718 20.8118C70.2372 20.8215 69.9499 20.9598 69.7583 21.0965C69.6109 21.202 68.2426 22.5599 68.192 22.6583C68.1608 22.7186 68.1398 22.7541 68.192 22.8133L76.821 31.2892C77.4279 30.5077 79.1411 29.5691 78.5293 28.4056L70.9695 20.9001C70.8113 20.8743 70.6289 20.8054 70.4718 20.8118ZM65.0153 22.6761C63.5232 22.9323 62.9884 24.9139 64.0226 25.9741C67.2251 28.8361 70.1156 32.534 73.3461 35.3073C75.578 37.2232 77.8347 34.6684 76.4293 32.8478C73.0405 29.5282 69.7836 26.0414 66.3018 22.8349C65.9144 22.6524 65.4382 22.6034 65.0148 22.6761H65.0153ZM66.2566 30.0018L56.5338 39.7268L59.7003 42.9505L69.4796 33.2256L66.2566 30.0018ZM50.7319 36.9638C49.334 37.1882 48.6689 39.0272 49.5831 40.1046L59.3769 49.9044C61.4469 51.2951 63.6233 48.7914 61.9537 46.9368L52.5484 37.5294C52.0388 37.0703 51.4276 36.8524 50.7319 36.9638ZM49.2403 41.6347C48.6086 42.407 46.8648 43.3719 47.483 44.5473L55.0428 52.0528C55.4297 52.1771 55.695 52.1599 56.0549 51.9694C56.3083 51.8354 57.6094 50.5863 57.781 50.3365C57.8284 50.2677 57.8929 50.2305 57.8198 50.1396L49.2398 41.6347H49.2403ZM48.2933 47.1736C47.4717 48.1408 46.0803 48.6789 47.1995 50.0615C47.547 50.491 49.4389 52.3886 49.8408 52.5727C50.995 53.1007 51.5438 51.8004 52.3116 51.1928L48.2933 47.1736Z" fill="white"/>
<path d="M53.84 63.44L52.192 69H51.16L49.992 64.792L48.752 69L47.728 69.008L46.152 63.44H47.12L48.272 67.968L49.52 63.44H50.544L51.704 67.944L52.864 63.44H53.84ZM56.5042 69.072C56.0882 69.072 55.7122 68.9787 55.3762 68.792C55.0402 68.6 54.7762 68.3333 54.5842 67.992C54.3922 67.6453 54.2962 67.2453 54.2962 66.792C54.2962 66.344 54.3949 65.9467 54.5922 65.6C54.7895 65.2533 55.0589 64.9867 55.4002 64.8C55.7415 64.6133 56.1229 64.52 56.5442 64.52C56.9655 64.52 57.3469 64.6133 57.6882 64.8C58.0295 64.9867 58.2989 65.2533 58.4962 65.6C58.6935 65.9467 58.7922 66.344 58.7922 66.792C58.7922 67.24 58.6909 67.6373 58.4882 67.984C58.2855 68.3307 58.0082 68.6 57.6562 68.792C57.3095 68.9787 56.9255 69.072 56.5042 69.072ZM56.5042 68.28C56.7389 68.28 56.9575 68.224 57.1602 68.112C57.3682 68 57.5362 67.832 57.6642 67.608C57.7922 67.384 57.8562 67.112 57.8562 66.792C57.8562 66.472 57.7949 66.2027 57.6722 65.984C57.5495 65.76 57.3869 65.592 57.1842 65.48C56.9815 65.368 56.7629 65.312 56.5282 65.312C56.2935 65.312 56.0749 65.368 55.8722 65.48C55.6749 65.592 55.5175 65.76 55.4002 65.984C55.2829 66.2027 55.2242 66.472 55.2242 66.792C55.2242 67.2667 55.3442 67.6347 55.5842 67.896C55.8295 68.152 56.1362 68.28 56.5042 68.28ZM60.6058 65.232C60.7391 65.008 60.9151 64.8347 61.1338 64.712C61.3578 64.584 61.6218 64.52 61.9258 64.52V65.464H61.6938C61.3364 65.464 61.0644 65.5547 60.8778 65.736C60.6964 65.9173 60.6058 66.232 60.6058 66.68V69H59.6938V64.592H60.6058V65.232ZM64.5081 66.8L66.5401 69H65.3081L63.6761 67.104V69H62.7641V63.08H63.6761V66.52L65.2761 64.592H66.5401L64.5081 66.8ZM69.1058 69.072C68.6898 69.072 68.3138 68.9787 67.9778 68.792C67.6418 68.6 67.3778 68.3333 67.1858 67.992C66.9938 67.6453 66.8978 67.2453 66.8978 66.792C66.8978 66.344 66.9964 65.9467 67.1938 65.6C67.3911 65.2533 67.6604 64.9867 68.0018 64.8C68.3431 64.6133 68.7244 64.52 69.1458 64.52C69.5671 64.52 69.9484 64.6133 70.2898 64.8C70.6311 64.9867 70.9004 65.2533 71.0978 65.6C71.2951 65.9467 71.3938 66.344 71.3938 66.792C71.3938 67.24 71.2924 67.6373 71.0898 67.984C70.8871 68.3307 70.6098 68.6 70.2578 68.792C69.9111 68.9787 69.5271 69.072 69.1058 69.072ZM69.1058 68.28C69.3404 68.28 69.5591 68.224 69.7618 68.112C69.9698 68 70.1378 67.832 70.2658 67.608C70.3938 67.384 70.4578 67.112 70.4578 66.792C70.4578 66.472 70.3964 66.2027 70.2738 65.984C70.1511 65.76 69.9884 65.592 69.7858 65.48C69.5831 65.368 69.3644 65.312 69.1298 65.312C68.8951 65.312 68.6764 65.368 68.4738 65.48C68.2764 65.592 68.1191 65.76 68.0018 65.984C67.8844 66.2027 67.8258 66.472 67.8258 66.792C67.8258 67.2667 67.9458 67.6347 68.1858 67.896C68.4311 68.152 68.7378 68.28 69.1058 68.28ZM76.2873 64.592V69H75.3753V68.48C75.2313 68.6613 75.042 68.8053 74.8073 68.912C74.578 69.0133 74.3326 69.064 74.0713 69.064C73.7246 69.064 73.4126 68.992 73.1353 68.848C72.8633 68.704 72.6473 68.4907 72.4873 68.208C72.3326 67.9253 72.2553 67.584 72.2553 67.184V64.592H73.1593V67.048C73.1593 67.4427 73.258 67.7467 73.4553 67.96C73.6526 68.168 73.922 68.272 74.2633 68.272C74.6046 68.272 74.874 68.168 75.0713 67.96C75.274 67.7467 75.3753 67.4427 75.3753 67.048V64.592H76.2873ZM78.5546 65.336V67.776C78.5546 67.9413 78.592 68.0613 78.6666 68.136C78.7466 68.2053 78.88 68.24 79.0666 68.24H79.6266V69H78.9066C78.496 69 78.1813 68.904 77.9626 68.712C77.744 68.52 77.6346 68.208 77.6346 67.776V65.336H77.1146V64.592H77.6346V63.496H78.5546V64.592H79.6266V65.336H78.5546Z" fill="white"/>
<path d="M151.812 26.75C149.355 26.5299 146.938 27.9687 144.5 27.9687C142.062 27.9687 139.644 26.5215 137.188 26.75C132.312 27.207 129.875 31.625 129.875 38.9375C129.875 45.0312 134.75 53.5625 138.345 53.5625C141.941 53.5625 142.302 51.7344 144.5 51.7344C146.698 51.7344 147.059 53.5625 150.655 53.5625C154.251 53.5625 159.125 45.0312 159.125 38.9375C159.125 31.625 156.916 27.207 151.812 26.75Z" stroke="white" stroke-width="2" stroke-miterlimit="10"/>
<path d="M149.674 23.333C148.074 24.9326 146.196 25.3896 145.193 25.5259C145.101 25.5391 145.008 25.5313 144.92 25.503C144.832 25.4747 144.751 25.4266 144.684 25.3625C144.618 25.2984 144.566 25.2199 144.534 25.133C144.502 25.0461 144.491 24.9531 144.5 24.861C144.681 23.1475 145.451 21.5501 146.679 20.3417C148.355 18.6659 150.183 18.2927 151.152 18.2203C151.243 18.212 151.334 18.2241 151.419 18.2556C151.504 18.2871 151.581 18.3373 151.644 18.4024C151.708 18.4676 151.756 18.546 151.785 18.6321C151.814 18.7181 151.823 18.8096 151.812 18.8997C151.621 20.5768 150.867 22.1395 149.674 23.333Z" fill="white"/>
<path d="M141.453 43.8125C142.463 43.8125 143.281 42.1755 143.281 40.1562C143.281 38.137 142.463 36.5 141.453 36.5C140.443 36.5 139.625 38.137 139.625 40.1562C139.625 42.1755 140.443 43.8125 141.453 43.8125Z" fill="white"/>
<path d="M147.547 43.8125C148.557 43.8125 149.375 42.1755 149.375 40.1562C149.375 38.137 148.557 36.5 147.547 36.5C146.537 36.5 145.719 38.137 145.719 40.1562C145.719 42.1755 146.537 43.8125 147.547 43.8125Z" fill="white"/>
<path d="M132.168 71H131.256L128.512 66.848V71H127.6V65.432H128.512L131.256 69.576V65.432H132.168V71ZM137.358 66.592V71H136.446V70.48C136.302 70.6613 136.112 70.8053 135.878 70.912C135.648 71.0133 135.403 71.064 135.142 71.064C134.795 71.064 134.483 70.992 134.206 70.848C133.934 70.704 133.718 70.4907 133.558 70.208C133.403 69.9253 133.326 69.584 133.326 69.184V66.592H134.23V69.048C134.23 69.4427 134.328 69.7467 134.526 69.96C134.723 70.168 134.992 70.272 135.334 70.272C135.675 70.272 135.944 70.168 136.142 69.96C136.344 69.7467 136.446 69.4427 136.446 69.048V66.592H137.358ZM139.625 67.336V69.776C139.625 69.9413 139.662 70.0613 139.737 70.136C139.817 70.2053 139.95 70.24 140.137 70.24H140.697V71H139.977C139.566 71 139.252 70.904 139.033 70.712C138.814 70.52 138.705 70.208 138.705 69.776V67.336H138.185V66.592H138.705V65.496H139.625V66.592H140.697V67.336H139.625ZM142.45 67.232C142.583 67.008 142.759 66.8347 142.978 66.712C143.202 66.584 143.466 66.52 143.77 66.52V67.464H143.538C143.18 67.464 142.908 67.5547 142.722 67.736C142.54 67.9173 142.45 68.232 142.45 68.68V71H141.538V66.592H142.45V67.232ZM145.072 66.008C144.906 66.008 144.768 65.952 144.656 65.84C144.544 65.728 144.488 65.5893 144.488 65.424C144.488 65.2587 144.544 65.12 144.656 65.008C144.768 64.896 144.906 64.84 145.072 64.84C145.232 64.84 145.368 64.896 145.48 65.008C145.592 65.12 145.648 65.2587 145.648 65.424C145.648 65.5893 145.592 65.728 145.48 65.84C145.368 65.952 145.232 66.008 145.072 66.008ZM145.52 66.592V71H144.608V66.592H145.52ZM147.781 67.336V69.776C147.781 69.9413 147.819 70.0613 147.893 70.136C147.973 70.2053 148.107 70.24 148.293 70.24H148.853V71H148.133C147.723 71 147.408 70.904 147.189 70.712C146.971 70.52 146.861 70.208 146.861 69.776V67.336H146.341V66.592H146.861V65.496H147.781V66.592H148.853V67.336H147.781ZM150.158 66.008C149.992 66.008 149.854 65.952 149.742 65.84C149.63 65.728 149.574 65.5893 149.574 65.424C149.574 65.2587 149.63 65.12 149.742 65.008C149.854 64.896 149.992 64.84 150.158 64.84C150.318 64.84 150.454 64.896 150.566 65.008C150.678 65.12 150.734 65.2587 150.734 65.424C150.734 65.5893 150.678 65.728 150.566 65.84C150.454 65.952 150.318 66.008 150.158 66.008ZM150.606 66.592V71H149.694V66.592H150.606ZM153.715 71.072C153.299 71.072 152.923 70.9787 152.587 70.792C152.251 70.6 151.987 70.3333 151.795 69.992C151.603 69.6453 151.507 69.2453 151.507 68.792C151.507 68.344 151.606 67.9467 151.803 67.6C152 67.2533 152.27 66.9867 152.611 66.8C152.952 66.6133 153.334 66.52 153.755 66.52C154.176 66.52 154.558 66.6133 154.899 66.8C155.24 66.9867 155.51 67.2533 155.707 67.6C155.904 67.9467 156.003 68.344 156.003 68.792C156.003 69.24 155.902 69.6373 155.699 69.984C155.496 70.3307 155.219 70.6 154.867 70.792C154.52 70.9787 154.136 71.072 153.715 71.072ZM153.715 70.28C153.95 70.28 154.168 70.224 154.371 70.112C154.579 70 154.747 69.832 154.875 69.608C155.003 69.384 155.067 69.112 155.067 68.792C155.067 68.472 155.006 68.2027 154.883 67.984C154.76 67.76 154.598 67.592 154.395 67.48C154.192 67.368 153.974 67.312 153.739 67.312C153.504 67.312 153.286 67.368 153.083 67.48C152.886 67.592 152.728 67.76 152.611 67.984C152.494 68.2027 152.435 68.472 152.435 68.792C152.435 69.2667 152.555 69.6347 152.795 69.896C153.04 70.152 153.347 70.28 153.715 70.28ZM159.129 66.52C159.475 66.52 159.785 66.592 160.057 66.736C160.334 66.88 160.55 67.0933 160.705 67.376C160.859 67.6587 160.937 68 160.937 68.4V71H160.033V68.536C160.033 68.1413 159.934 67.84 159.737 67.632C159.539 67.4187 159.27 67.312 158.929 67.312C158.587 67.312 158.315 67.4187 158.113 67.632C157.915 67.84 157.817 68.1413 157.817 68.536V71H156.905V66.592H157.817V67.096C157.966 66.9147 158.155 66.7733 158.385 66.672C158.619 66.5707 158.867 66.52 159.129 66.52Z" fill="white"/>
<g clip-path="url(#clip0_470_757)">
<path d="M213.656 54C210.032 54 207.094 51.0619 207.094 47.4375V34.3577C207.094 32.2667 208.09 30.3009 209.777 29.0648L219.626 21.8451C221.937 20.1516 225.079 20.1524 227.388 21.8469L237.226 29.0647C238.911 30.3009 239.906 32.2659 239.906 34.3558V47.4375C239.906 51.0619 236.968 54 233.344 54H213.656ZM221.124 23.4685L220.92 23.6094L211.07 30.8291C210.012 31.6047 209.361 32.8112 209.288 34.1127L209.281 34.3577V47.4375C209.281 49.7806 211.123 51.6934 213.438 51.8072L213.656 51.8125L218.031 51.8119V46.3438C218.031 43.3235 220.48 40.875 223.5 40.875C226.52 40.875 228.969 43.3235 228.969 46.3438V51.8119L233.344 51.8125C235.687 51.8125 237.6 49.9707 237.713 47.6559L237.719 47.4375V34.3558C237.719 33.0445 237.131 31.807 236.125 30.9788L235.932 30.8284L226.094 23.6106C224.621 22.53 222.641 22.4826 221.124 23.4685ZM223.5 43.0625C221.753 43.0625 220.324 44.4285 220.224 46.151L220.219 46.3438V51.8125H226.781V46.3438C226.781 44.5963 225.415 43.1679 223.693 43.0681L223.5 43.0625Z" fill="white"/>
</g>
<path d="M216.54 63.44V69H215.628V66.568H213.012V69H212.1V63.44H213.012V65.824H215.628V63.44H216.54ZM219.653 69.072C219.237 69.072 218.861 68.9787 218.525 68.792C218.189 68.6 217.925 68.3333 217.733 67.992C217.541 67.6453 217.445 67.2453 217.445 66.792C217.445 66.344 217.543 65.9467 217.741 65.6C217.938 65.2533 218.207 64.9867 218.549 64.8C218.89 64.6133 219.271 64.52 219.693 64.52C220.114 64.52 220.495 64.6133 220.837 64.8C221.178 64.9867 221.447 65.2533 221.645 65.6C221.842 65.9467 221.941 66.344 221.941 66.792C221.941 67.24 221.839 67.6373 221.637 67.984C221.434 68.3307 221.157 68.6 220.805 68.792C220.458 68.9787 220.074 69.072 219.653 69.072ZM219.653 68.28C219.887 68.28 220.106 68.224 220.309 68.112C220.517 68 220.685 67.832 220.813 67.608C220.941 67.384 221.005 67.112 221.005 66.792C221.005 66.472 220.943 66.2027 220.821 65.984C220.698 65.76 220.535 65.592 220.333 65.48C220.13 65.368 219.911 65.312 219.677 65.312C219.442 65.312 219.223 65.368 219.021 65.48C218.823 65.592 218.666 65.76 218.549 65.984C218.431 66.2027 218.373 66.472 218.373 66.792C218.373 67.2667 218.493 67.6347 218.733 67.896C218.978 68.152 219.285 68.28 219.653 68.28ZM228.178 64.52C228.525 64.52 228.834 64.592 229.106 64.736C229.384 64.88 229.6 65.0933 229.754 65.376C229.914 65.6587 229.994 66 229.994 66.4V69H229.09V66.536C229.09 66.1413 228.992 65.84 228.794 65.632C228.597 65.4187 228.328 65.312 227.986 65.312C227.645 65.312 227.373 65.4187 227.17 65.632C226.973 65.84 226.874 66.1413 226.874 66.536V69H225.97V66.536C225.97 66.1413 225.872 65.84 225.674 65.632C225.477 65.4187 225.208 65.312 224.866 65.312C224.525 65.312 224.253 65.4187 224.05 65.632C223.853 65.84 223.754 66.1413 223.754 66.536V69H222.842V64.592H223.754V65.096C223.904 64.9147 224.093 64.7733 224.322 64.672C224.552 64.5707 224.797 64.52 225.058 64.52C225.41 64.52 225.725 64.5947 226.002 64.744C226.28 64.8933 226.493 65.1093 226.642 65.392C226.776 65.1253 226.984 64.9147 227.266 64.76C227.549 64.6 227.853 64.52 228.178 64.52ZM235.195 66.688C235.195 66.8533 235.184 67.0027 235.163 67.136H231.795C231.821 67.488 231.952 67.7707 232.187 67.984C232.421 68.1973 232.709 68.304 233.051 68.304C233.541 68.304 233.888 68.0987 234.091 67.688H235.075C234.941 68.0933 234.699 68.4267 234.347 68.688C234 68.944 233.568 69.072 233.051 69.072C232.629 69.072 232.251 68.9787 231.915 68.792C231.584 68.6 231.323 68.3333 231.131 67.992C230.944 67.6453 230.851 67.2453 230.851 66.792C230.851 66.3387 230.941 65.9413 231.123 65.6C231.309 65.2533 231.568 64.9867 231.899 64.8C232.235 64.6133 232.619 64.52 233.051 64.52C233.467 64.52 233.837 64.6107 234.163 64.792C234.488 64.9733 234.741 65.2293 234.923 65.56C235.104 65.8853 235.195 66.2613 235.195 66.688ZM234.243 66.4C234.237 66.064 234.117 65.7947 233.883 65.592C233.648 65.3893 233.357 65.288 233.011 65.288C232.696 65.288 232.427 65.3893 232.203 65.592C231.979 65.7893 231.845 66.0587 231.803 66.4H234.243Z" fill="white"/>
<rect x="287.364" y="36.4394" width="5.42424" height="16.5606" rx="2.71212" stroke="white" stroke-width="2"/>
<rect x="299.788" y="26.8939" width="5.42424" height="26.106" rx="2.71212" stroke="white" stroke-width="2"/>
<rect x="312.212" y="20" width="5.42424" height="33" rx="2.71212" stroke="white" stroke-width="2"/>
<path d="M289.488 65.096C289.488 65.3787 289.421 65.6453 289.288 65.896C289.155 66.1467 288.941 66.352 288.648 66.512C288.355 66.6667 287.979 66.744 287.52 66.744H286.512V69H285.6V63.44H287.52C287.947 63.44 288.307 63.5147 288.6 63.664C288.899 63.808 289.12 64.0053 289.264 64.256C289.413 64.5067 289.488 64.7867 289.488 65.096ZM287.52 66C287.867 66 288.125 65.9227 288.296 65.768C288.467 65.608 288.552 65.384 288.552 65.096C288.552 64.488 288.208 64.184 287.52 64.184H286.512V66H287.52ZM291.27 65.232C291.403 65.008 291.579 64.8347 291.798 64.712C292.022 64.584 292.286 64.52 292.59 64.52V65.464H292.358C292 65.464 291.728 65.5547 291.542 65.736C291.36 65.9173 291.27 66.232 291.27 66.68V69H290.358V64.592H291.27V65.232ZM295.34 69.072C294.924 69.072 294.548 68.9787 294.212 68.792C293.876 68.6 293.612 68.3333 293.42 67.992C293.228 67.6453 293.132 67.2453 293.132 66.792C293.132 66.344 293.231 65.9467 293.428 65.6C293.625 65.2533 293.895 64.9867 294.236 64.8C294.577 64.6133 294.959 64.52 295.38 64.52C295.801 64.52 296.183 64.6133 296.524 64.8C296.865 64.9867 297.135 65.2533 297.332 65.6C297.529 65.9467 297.628 66.344 297.628 66.792C297.628 67.24 297.527 67.6373 297.324 67.984C297.121 68.3307 296.844 68.6 296.492 68.792C296.145 68.9787 295.761 69.072 295.34 69.072ZM295.34 68.28C295.575 68.28 295.793 68.224 295.996 68.112C296.204 68 296.372 67.832 296.5 67.608C296.628 67.384 296.692 67.112 296.692 66.792C296.692 66.472 296.631 66.2027 296.508 65.984C296.385 65.76 296.223 65.592 296.02 65.48C295.817 65.368 295.599 65.312 295.364 65.312C295.129 65.312 294.911 65.368 294.708 65.48C294.511 65.592 294.353 65.76 294.236 65.984C294.119 66.2027 294.06 66.472 294.06 66.792C294.06 67.2667 294.18 67.6347 294.42 67.896C294.665 68.152 294.972 68.28 295.34 68.28ZM300.306 64.52C300.647 64.52 300.948 64.5893 301.21 64.728C301.476 64.8613 301.684 65.0293 301.834 65.232V64.592H302.754V69.072C302.754 69.4773 302.668 69.8373 302.498 70.152C302.327 70.472 302.079 70.7227 301.754 70.904C301.434 71.0853 301.05 71.176 300.602 71.176C300.004 71.176 299.508 71.0347 299.114 70.752C298.719 70.4747 298.495 70.096 298.442 69.616H299.346C299.415 69.8453 299.562 70.0293 299.786 70.168C300.015 70.312 300.287 70.384 300.602 70.384C300.97 70.384 301.266 70.272 301.49 70.048C301.719 69.824 301.834 69.4987 301.834 69.072V68.336C301.679 68.544 301.468 68.72 301.202 68.864C300.94 69.0027 300.642 69.072 300.306 69.072C299.922 69.072 299.57 68.976 299.25 68.784C298.935 68.5867 298.684 68.3147 298.498 67.968C298.316 67.616 298.226 67.2187 298.226 66.776C298.226 66.3333 298.316 65.9413 298.498 65.6C298.684 65.2587 298.935 64.9947 299.25 64.808C299.57 64.616 299.922 64.52 300.306 64.52ZM301.834 66.792C301.834 66.488 301.77 66.224 301.642 66C301.519 65.776 301.356 65.6053 301.154 65.488C300.951 65.3707 300.732 65.312 300.498 65.312C300.263 65.312 300.044 65.3707 299.842 65.488C299.639 65.6 299.474 65.768 299.346 65.992C299.223 66.2107 299.162 66.472 299.162 66.776C299.162 67.08 299.223 67.3467 299.346 67.576C299.474 67.8053 299.639 67.9813 299.842 68.104C300.05 68.2213 300.268 68.28 300.498 68.28C300.732 68.28 300.951 68.2213 301.154 68.104C301.356 67.9867 301.519 67.816 301.642 67.592C301.77 67.3627 301.834 67.096 301.834 66.792ZM304.864 65.232C304.997 65.008 305.173 64.8347 305.392 64.712C305.616 64.584 305.88 64.52 306.184 64.52V65.464H305.952C305.594 65.464 305.322 65.5547 305.136 65.736C304.954 65.9173 304.864 66.232 304.864 66.68V69H303.952V64.592H304.864V65.232ZM311.062 66.688C311.062 66.8533 311.051 67.0027 311.03 67.136H307.662C307.689 67.488 307.819 67.7707 308.054 67.984C308.289 68.1973 308.577 68.304 308.918 68.304C309.409 68.304 309.755 68.0987 309.958 67.688H310.942C310.809 68.0933 310.566 68.4267 310.214 68.688C309.867 68.944 309.435 69.072 308.918 69.072C308.497 69.072 308.118 68.9787 307.782 68.792C307.451 68.6 307.19 68.3333 306.998 67.992C306.811 67.6453 306.718 67.2453 306.718 66.792C306.718 66.3387 306.809 65.9413 306.99 65.6C307.177 65.2533 307.435 64.9867 307.766 64.8C308.102 64.6133 308.486 64.52 308.918 64.52C309.334 64.52 309.705 64.6107 310.03 64.792C310.355 64.9733 310.609 65.2293 310.79 65.56C310.971 65.8853 311.062 66.2613 311.062 66.688ZM310.11 66.4C310.105 66.064 309.985 65.7947 309.75 65.592C309.515 65.3893 309.225 65.288 308.878 65.288C308.563 65.288 308.294 65.3893 308.07 65.592C307.846 65.7893 307.713 66.0587 307.67 66.4H310.11ZM313.559 69.072C313.213 69.072 312.901 69.0107 312.623 68.888C312.351 68.76 312.135 68.5893 311.975 68.376C311.815 68.1573 311.73 67.9147 311.719 67.648H312.663C312.679 67.8347 312.767 67.992 312.927 68.12C313.093 68.2427 313.298 68.304 313.543 68.304C313.799 68.304 313.997 68.256 314.135 68.16C314.279 68.0587 314.351 67.9307 314.351 67.776C314.351 67.6107 314.271 67.488 314.111 67.408C313.957 67.328 313.709 67.24 313.367 67.144C313.037 67.0533 312.767 66.9653 312.559 66.88C312.351 66.7947 312.17 66.664 312.015 66.488C311.866 66.312 311.791 66.08 311.791 65.792C311.791 65.5573 311.861 65.344 311.999 65.152C312.138 64.9547 312.335 64.8 312.591 64.688C312.853 64.576 313.151 64.52 313.487 64.52C313.989 64.52 314.391 64.648 314.695 64.904C315.005 65.1547 315.17 65.4987 315.191 65.936H314.279C314.263 65.7387 314.183 65.5813 314.039 65.464C313.895 65.3467 313.701 65.288 313.455 65.288C313.215 65.288 313.031 65.3333 312.903 65.424C312.775 65.5147 312.711 65.6347 312.711 65.784C312.711 65.9013 312.754 66 312.839 66.08C312.925 66.16 313.029 66.224 313.151 66.272C313.274 66.3147 313.455 66.3707 313.695 66.44C314.015 66.5253 314.277 66.6133 314.479 66.704C314.687 66.7893 314.866 66.9173 315.015 67.088C315.165 67.2587 315.242 67.4853 315.247 67.768C315.247 68.0187 315.178 68.2427 315.039 68.44C314.901 68.6373 314.703 68.792 314.447 68.904C314.197 69.016 313.901 69.072 313.559 69.072ZM317.833 69.072C317.486 69.072 317.174 69.0107 316.897 68.888C316.625 68.76 316.409 68.5893 316.249 68.376C316.089 68.1573 316.003 67.9147 315.993 67.648H316.937C316.953 67.8347 317.041 67.992 317.201 68.12C317.366 68.2427 317.571 68.304 317.817 68.304C318.073 68.304 318.27 68.256 318.409 68.16C318.553 68.0587 318.625 67.9307 318.625 67.776C318.625 67.6107 318.545 67.488 318.385 67.408C318.23 67.328 317.982 67.24 317.641 67.144C317.31 67.0533 317.041 66.9653 316.833 66.88C316.625 66.7947 316.443 66.664 316.289 66.488C316.139 66.312 316.065 66.08 316.065 65.792C316.065 65.5573 316.134 65.344 316.273 65.152C316.411 64.9547 316.609 64.8 316.865 64.688C317.126 64.576 317.425 64.52 317.761 64.52C318.262 64.52 318.665 64.648 318.969 64.904C319.278 65.1547 319.443 65.4987 319.465 65.936H318.553C318.537 65.7387 318.457 65.5813 318.313 65.464C318.169 65.3467 317.974 65.288 317.729 65.288C317.489 65.288 317.305 65.3333 317.177 65.424C317.049 65.5147 316.985 65.6347 316.985 65.784C316.985 65.9013 317.027 66 317.113 66.08C317.198 66.16 317.302 66.224 317.425 66.272C317.547 66.3147 317.729 66.3707 317.969 66.44C318.289 66.5253 318.55 66.6133 318.753 66.704C318.961 66.7893 319.139 66.9173 319.289 67.088C319.438 67.2587 319.515 67.4853 319.521 67.768C319.521 68.0187 319.451 68.2427 319.313 68.44C319.174 68.6373 318.977 68.792 318.721 68.904C318.47 69.016 318.174 69.072 317.833 69.072Z" fill="white"/>
<g clip-path="url(#clip1_470_757)">
<mask id="path-15-inside-1_470_757" fill="white">
<path fill-rule="evenodd" clip-rule="evenodd" d="M379.244 19.0137C380.912 19 381.363 19.0547 382.73 19.3965C383.592 19.6015 384.767 19.9707 385.328 20.2031C385.889 20.4492 386.941 21.0097 387.652 21.4746C388.363 21.9394 389.443 22.8281 390.058 23.4297C390.66 24.0449 391.48 25.0019 391.877 25.5625C392.273 26.1367 392.574 26.7383 392.574 26.9297C392.574 27.1211 392.506 27.3535 392.41 27.4355C392.314 27.5312 392.068 27.6133 391.863 27.6133C391.535 27.6133 391.371 27.4492 390.701 26.4785C390.277 25.8633 389.512 24.9472 388.992 24.4277C388.486 23.9219 387.529 23.1562 386.859 22.7324C386.203 22.3086 385.15 21.7344 384.508 21.4883C383.865 21.2285 382.785 20.9004 382.115 20.7637C381.336 20.5996 380.31 20.5039 379.312 20.5039C378.314 20.5039 377.289 20.5996 376.51 20.7637C375.826 20.9004 374.76 21.2285 374.117 21.4883C373.474 21.7344 372.394 22.3086 371.724 22.7597C371.041 23.1972 370.057 23.9902 369.537 24.5234C369.004 25.0566 368.32 25.8633 368.006 26.3144C367.705 26.7656 367.226 27.5586 366.967 28.0918C366.693 28.6113 366.324 29.5137 366.146 30.0742C365.955 30.6347 365.736 31.5918 365.641 32.1933C365.517 32.8906 365.49 33.9023 365.545 34.9961C365.599 36.2539 365.709 37.0332 365.969 37.9355C366.174 38.6054 366.584 39.6855 366.885 40.3281C367.185 40.9707 367.664 41.791 367.924 42.1738C368.197 42.5429 368.676 43.1445 368.976 43.5137C369.291 43.8691 369.92 44.4707 371.246 45.5234V48.5996C371.246 50.2949 371.287 51.7031 371.342 51.7304C371.41 51.7578 372.654 50.9238 374.117 49.8847C375.58 48.8457 376.92 47.998 377.084 47.998C377.262 47.9844 377.494 48.0801 377.603 48.1894C377.713 48.2988 377.808 48.5312 377.808 48.709C377.822 48.873 377.713 49.1054 377.576 49.2285C377.439 49.3515 375.867 50.4863 374.076 51.7304C372.299 52.9746 370.74 54 370.631 54C370.521 54 370.303 53.9316 370.152 53.8633C369.892 53.7265 369.879 53.5898 369.879 46.4804L368.607 45.209C367.924 44.5117 367.062 43.5137 366.721 42.9941C366.365 42.4609 365.859 41.5859 365.586 41.039C365.312 40.5058 364.943 39.5762 364.752 38.9883C364.56 38.414 364.301 37.3476 364.191 36.6367C364.027 35.707 363.986 34.8457 364.041 33.6289C364.096 32.4668 364.232 31.5097 364.451 30.6211C364.642 29.9101 364.998 28.8301 365.258 28.2285C365.504 27.6269 366.078 26.5742 366.529 25.9043C366.98 25.2207 367.869 24.1406 368.512 23.498C369.168 22.8144 370.207 21.9668 370.904 21.5156C371.574 21.0781 372.627 20.5039 373.228 20.2441C373.83 19.998 374.992 19.6152 375.826 19.3965C377.098 19.082 377.617 19.0137 379.244 19.0137ZM387.201 27.6133C388.049 27.6133 389.156 27.6953 389.662 27.8047C390.182 27.914 391.016 28.1601 391.549 28.3652C392.068 28.5566 392.93 28.9941 393.463 29.3222C393.982 29.6504 394.762 30.2246 395.172 30.5937C395.582 30.9629 396.224 31.6465 396.594 32.1387C396.963 32.6172 397.523 33.5605 397.838 34.2441C398.166 34.914 398.535 35.8984 398.672 36.4316C398.863 37.1426 398.918 37.8672 398.918 39.3027C398.904 40.9707 398.863 41.3672 398.549 42.4199C398.344 43.0762 398.016 43.9375 397.824 44.334C397.619 44.7168 397.209 45.414 396.908 45.8652C396.607 46.3164 395.965 47.0683 394.625 48.3945V50.9922C394.625 52.414 394.598 53.6855 394.557 53.7949C394.511 53.9316 394.306 54 393.941 54C393.463 54 393.094 53.7949 388.883 50.8554H387.447C386.654 50.8554 385.533 50.7597 384.945 50.6367C384.371 50.5137 383.428 50.2265 382.867 49.9941C382.307 49.7617 381.404 49.2832 380.885 48.9277C380.351 48.5722 379.545 47.8887 379.08 47.4101C378.601 46.9453 378.014 46.2617 377.781 45.9199C377.535 45.5781 377.098 44.8125 376.824 44.2109C376.537 43.623 376.182 42.6387 376.017 42.0371C375.812 41.2578 375.717 40.5058 375.717 39.3711C375.703 38.2637 375.771 37.4707 375.949 36.7051C376.086 36.1035 376.387 35.1738 376.605 34.6543C376.824 34.1211 377.289 33.2734 377.644 32.7402C378 32.2207 378.656 31.4277 379.107 30.9765C379.558 30.539 380.269 29.9375 380.68 29.664C381.09 29.3769 381.828 28.9531 382.32 28.707C382.812 28.4609 383.756 28.1191 384.439 27.9414C385.355 27.709 386.066 27.6269 387.201 27.6133ZM384.439 29.4453C384.057 29.5547 383.264 29.8965 382.662 30.1972C381.924 30.5527 381.213 31.0586 380.488 31.7422C379.9 32.289 379.121 33.2051 378.752 33.7656C378.355 34.3672 377.904 35.3379 377.644 36.0898C377.262 37.2656 377.207 37.5527 377.207 39.0976C377.193 40.3144 377.262 41.0664 377.439 41.6953C377.562 42.1875 377.945 43.1308 378.273 43.8144C378.697 44.6758 379.162 45.3457 379.818 46.0566C380.324 46.6172 381.09 47.3008 381.5 47.5742C381.91 47.8476 382.512 48.2168 382.826 48.3808C383.154 48.5312 383.947 48.8183 384.603 49.0097C385.615 49.3105 386.08 49.3652 387.543 49.3515H389.293L393.053 51.9492L393.121 47.7109C394.338 46.6035 394.953 45.9746 395.267 45.5918C395.568 45.2226 396.047 44.5117 396.307 44.0195C396.58 43.5273 396.935 42.666 397.113 42.1054C397.373 41.2441 397.428 40.7793 397.428 39.2344C397.428 37.6758 397.373 37.2246 397.113 36.3633C396.935 35.8027 396.58 34.9414 396.32 34.4492C396.06 33.957 395.555 33.1914 395.199 32.7402C394.83 32.289 394.105 31.6054 393.586 31.209C393.066 30.8125 392.246 30.2929 391.754 30.0605C391.262 29.8281 390.428 29.5273 389.908 29.3906C389.375 29.2676 388.486 29.1172 387.926 29.0898C387.365 29.0488 386.504 29.0625 386.012 29.1308C385.519 29.1992 384.808 29.3359 384.439 29.4453Z"/>
</mask>
<path fill-rule="evenodd" clip-rule="evenodd" d="M379.244 19.0137C380.912 19 381.363 19.0547 382.73 19.3965C383.592 19.6015 384.767 19.9707 385.328 20.2031C385.889 20.4492 386.941 21.0097 387.652 21.4746C388.363 21.9394 389.443 22.8281 390.058 23.4297C390.66 24.0449 391.48 25.0019 391.877 25.5625C392.273 26.1367 392.574 26.7383 392.574 26.9297C392.574 27.1211 392.506 27.3535 392.41 27.4355C392.314 27.5312 392.068 27.6133 391.863 27.6133C391.535 27.6133 391.371 27.4492 390.701 26.4785C390.277 25.8633 389.512 24.9472 388.992 24.4277C388.486 23.9219 387.529 23.1562 386.859 22.7324C386.203 22.3086 385.15 21.7344 384.508 21.4883C383.865 21.2285 382.785 20.9004 382.115 20.7637C381.336 20.5996 380.31 20.5039 379.312 20.5039C378.314 20.5039 377.289 20.5996 376.51 20.7637C375.826 20.9004 374.76 21.2285 374.117 21.4883C373.474 21.7344 372.394 22.3086 371.724 22.7597C371.041 23.1972 370.057 23.9902 369.537 24.5234C369.004 25.0566 368.32 25.8633 368.006 26.3144C367.705 26.7656 367.226 27.5586 366.967 28.0918C366.693 28.6113 366.324 29.5137 366.146 30.0742C365.955 30.6347 365.736 31.5918 365.641 32.1933C365.517 32.8906 365.49 33.9023 365.545 34.9961C365.599 36.2539 365.709 37.0332 365.969 37.9355C366.174 38.6054 366.584 39.6855 366.885 40.3281C367.185 40.9707 367.664 41.791 367.924 42.1738C368.197 42.5429 368.676 43.1445 368.976 43.5137C369.291 43.8691 369.92 44.4707 371.246 45.5234V48.5996C371.246 50.2949 371.287 51.7031 371.342 51.7304C371.41 51.7578 372.654 50.9238 374.117 49.8847C375.58 48.8457 376.92 47.998 377.084 47.998C377.262 47.9844 377.494 48.0801 377.603 48.1894C377.713 48.2988 377.808 48.5312 377.808 48.709C377.822 48.873 377.713 49.1054 377.576 49.2285C377.439 49.3515 375.867 50.4863 374.076 51.7304C372.299 52.9746 370.74 54 370.631 54C370.521 54 370.303 53.9316 370.152 53.8633C369.892 53.7265 369.879 53.5898 369.879 46.4804L368.607 45.209C367.924 44.5117 367.062 43.5137 366.721 42.9941C366.365 42.4609 365.859 41.5859 365.586 41.039C365.312 40.5058 364.943 39.5762 364.752 38.9883C364.56 38.414 364.301 37.3476 364.191 36.6367C364.027 35.707 363.986 34.8457 364.041 33.6289C364.096 32.4668 364.232 31.5097 364.451 30.6211C364.642 29.9101 364.998 28.8301 365.258 28.2285C365.504 27.6269 366.078 26.5742 366.529 25.9043C366.98 25.2207 367.869 24.1406 368.512 23.498C369.168 22.8144 370.207 21.9668 370.904 21.5156C371.574 21.0781 372.627 20.5039 373.228 20.2441C373.83 19.998 374.992 19.6152 375.826 19.3965C377.098 19.082 377.617 19.0137 379.244 19.0137ZM387.201 27.6133C388.049 27.6133 389.156 27.6953 389.662 27.8047C390.182 27.914 391.016 28.1601 391.549 28.3652C392.068 28.5566 392.93 28.9941 393.463 29.3222C393.982 29.6504 394.762 30.2246 395.172 30.5937C395.582 30.9629 396.224 31.6465 396.594 32.1387C396.963 32.6172 397.523 33.5605 397.838 34.2441C398.166 34.914 398.535 35.8984 398.672 36.4316C398.863 37.1426 398.918 37.8672 398.918 39.3027C398.904 40.9707 398.863 41.3672 398.549 42.4199C398.344 43.0762 398.016 43.9375 397.824 44.334C397.619 44.7168 397.209 45.414 396.908 45.8652C396.607 46.3164 395.965 47.0683 394.625 48.3945V50.9922C394.625 52.414 394.598 53.6855 394.557 53.7949C394.511 53.9316 394.306 54 393.941 54C393.463 54 393.094 53.7949 388.883 50.8554H387.447C386.654 50.8554 385.533 50.7597 384.945 50.6367C384.371 50.5137 383.428 50.2265 382.867 49.9941C382.307 49.7617 381.404 49.2832 380.885 48.9277C380.351 48.5722 379.545 47.8887 379.08 47.4101C378.601 46.9453 378.014 46.2617 377.781 45.9199C377.535 45.5781 377.098 44.8125 376.824 44.2109C376.537 43.623 376.182 42.6387 376.017 42.0371C375.812 41.2578 375.717 40.5058 375.717 39.3711C375.703 38.2637 375.771 37.4707 375.949 36.7051C376.086 36.1035 376.387 35.1738 376.605 34.6543C376.824 34.1211 377.289 33.2734 377.644 32.7402C378 32.2207 378.656 31.4277 379.107 30.9765C379.558 30.539 380.269 29.9375 380.68 29.664C381.09 29.3769 381.828 28.9531 382.32 28.707C382.812 28.4609 383.756 28.1191 384.439 27.9414C385.355 27.709 386.066 27.6269 387.201 27.6133ZM384.439 29.4453C384.057 29.5547 383.264 29.8965 382.662 30.1972C381.924 30.5527 381.213 31.0586 380.488 31.7422C379.9 32.289 379.121 33.2051 378.752 33.7656C378.355 34.3672 377.904 35.3379 377.644 36.0898C377.262 37.2656 377.207 37.5527 377.207 39.0976C377.193 40.3144 377.262 41.0664 377.439 41.6953C377.562 42.1875 377.945 43.1308 378.273 43.8144C378.697 44.6758 379.162 45.3457 379.818 46.0566C380.324 46.6172 381.09 47.3008 381.5 47.5742C381.91 47.8476 382.512 48.2168 382.826 48.3808C383.154 48.5312 383.947 48.8183 384.603 49.0097C385.615 49.3105 386.08 49.3652 387.543 49.3515H389.293L393.053 51.9492L393.121 47.7109C394.338 46.6035 394.953 45.9746 395.267 45.5918C395.568 45.2226 396.047 44.5117 396.307 44.0195C396.58 43.5273 396.935 42.666 397.113 42.1054C397.373 41.2441 397.428 40.7793 397.428 39.2344C397.428 37.6758 397.373 37.2246 397.113 36.3633C396.935 35.8027 396.58 34.9414 396.32 34.4492C396.06 33.957 395.555 33.1914 395.199 32.7402C394.83 32.289 394.105 31.6054 393.586 31.209C393.066 30.8125 392.246 30.2929 391.754 30.0605C391.262 29.8281 390.428 29.5273 389.908 29.3906C389.375 29.2676 388.486 29.1172 387.926 29.0898C387.365 29.0488 386.504 29.0625 386.012 29.1308C385.519 29.1992 384.808 29.3359 384.439 29.4453Z" fill="white" stroke="white" stroke-width="2" mask="url(#path-15-inside-1_470_757)"/>
</g>
<path d="M368.296 66.208C368.296 65.664 368.421 65.176 368.672 64.744C368.928 64.312 369.272 63.976 369.704 63.736C370.141 63.4907 370.619 63.368 371.136 63.368C371.728 63.368 372.253 63.5147 372.712 63.808C373.176 64.096 373.512 64.5067 373.72 65.04H372.624C372.48 64.7467 372.28 64.528 372.024 64.384C371.768 64.24 371.472 64.168 371.136 64.168C370.768 64.168 370.44 64.2507 370.152 64.416C369.864 64.5813 369.637 64.8187 369.472 65.128C369.312 65.4373 369.232 65.7973 369.232 66.208C369.232 66.6187 369.312 66.9787 369.472 67.288C369.637 67.5973 369.864 67.8373 370.152 68.008C370.44 68.1733 370.768 68.256 371.136 68.256C371.472 68.256 371.768 68.184 372.024 68.04C372.28 67.896 372.48 67.6773 372.624 67.384H373.72C373.512 67.9173 373.176 68.328 372.712 68.616C372.253 68.904 371.728 69.048 371.136 69.048C370.613 69.048 370.136 68.928 369.704 68.688C369.272 68.4427 368.928 68.104 368.672 67.672C368.421 67.24 368.296 66.752 368.296 66.208ZM376.7 69.072C376.284 69.072 375.908 68.9787 375.572 68.792C375.236 68.6 374.972 68.3333 374.78 67.992C374.588 67.6453 374.492 67.2453 374.492 66.792C374.492 66.344 374.59 65.9467 374.788 65.6C374.985 65.2533 375.254 64.9867 375.596 64.8C375.937 64.6133 376.318 64.52 376.74 64.52C377.161 64.52 377.542 64.6133 377.884 64.8C378.225 64.9867 378.494 65.2533 378.692 65.6C378.889 65.9467 378.988 66.344 378.988 66.792C378.988 67.24 378.886 67.6373 378.684 67.984C378.481 68.3307 378.204 68.6 377.852 68.792C377.505 68.9787 377.121 69.072 376.7 69.072ZM376.7 68.28C376.934 68.28 377.153 68.224 377.356 68.112C377.564 68 377.732 67.832 377.86 67.608C377.988 67.384 378.052 67.112 378.052 66.792C378.052 66.472 377.99 66.2027 377.868 65.984C377.745 65.76 377.582 65.592 377.38 65.48C377.177 65.368 376.958 65.312 376.724 65.312C376.489 65.312 376.27 65.368 376.068 65.48C375.87 65.592 375.713 65.76 375.596 65.984C375.478 66.2027 375.42 66.472 375.42 66.792C375.42 67.2667 375.54 67.6347 375.78 67.896C376.025 68.152 376.332 68.28 376.7 68.28ZM379.585 66.776C379.585 66.3333 379.676 65.9413 379.857 65.6C380.044 65.2587 380.294 64.9947 380.609 64.808C380.929 64.616 381.281 64.52 381.665 64.52C382.012 64.52 382.313 64.5893 382.569 64.728C382.83 64.8613 383.038 65.0293 383.193 65.232V64.592H384.113V69H383.193V68.344C383.038 68.552 382.828 68.7253 382.561 68.864C382.294 69.0027 381.99 69.072 381.649 69.072C381.27 69.072 380.924 68.976 380.609 68.784C380.294 68.5867 380.044 68.3147 379.857 67.968C379.676 67.616 379.585 67.2187 379.585 66.776ZM383.193 66.792C383.193 66.488 383.129 66.224 383.001 66C382.878 65.776 382.716 65.6053 382.513 65.488C382.31 65.3707 382.092 65.312 381.857 65.312C381.622 65.312 381.404 65.3707 381.201 65.488C380.998 65.6 380.833 65.768 380.705 65.992C380.582 66.2107 380.521 66.472 380.521 66.776C380.521 67.08 380.582 67.3467 380.705 67.576C380.833 67.8053 380.998 67.9813 381.201 68.104C381.409 68.2213 381.628 68.28 381.857 68.28C382.092 68.28 382.31 68.2213 382.513 68.104C382.716 67.9867 382.878 67.816 383.001 67.592C383.129 67.3627 383.193 67.096 383.193 66.792ZM385.007 66.792C385.007 66.3387 385.098 65.9413 385.279 65.6C385.466 65.2533 385.722 64.9867 386.047 64.8C386.372 64.6133 386.746 64.52 387.167 64.52C387.7 64.52 388.14 64.648 388.487 64.904C388.839 65.1547 389.076 65.5147 389.199 65.984H388.215C388.135 65.7653 388.007 65.5947 387.831 65.472C387.655 65.3493 387.434 65.288 387.167 65.288C386.794 65.288 386.495 65.4213 386.271 65.688C386.052 65.9493 385.943 66.3173 385.943 66.792C385.943 67.2667 386.052 67.6373 386.271 67.904C386.495 68.1707 386.794 68.304 387.167 68.304C387.695 68.304 388.044 68.072 388.215 67.608H389.199C389.071 68.056 388.831 68.4133 388.479 68.68C388.127 68.9413 387.69 69.072 387.167 69.072C386.746 69.072 386.372 68.9787 386.047 68.792C385.722 68.6 385.466 68.3333 385.279 67.992C385.098 67.6453 385.007 67.2453 385.007 66.792ZM392.388 64.52C392.724 64.52 393.022 64.592 393.284 64.736C393.55 64.88 393.758 65.0933 393.908 65.376C394.062 65.6587 394.14 66 394.14 66.4V69H393.236V66.536C393.236 66.1413 393.137 65.84 392.94 65.632C392.742 65.4187 392.473 65.312 392.132 65.312C391.79 65.312 391.518 65.4187 391.316 65.632C391.118 65.84 391.02 66.1413 391.02 66.536V69H390.108V63.08H391.02V65.104C391.174 64.9173 391.369 64.7733 391.604 64.672C391.844 64.5707 392.105 64.52 392.388 64.52Z" fill="white"/>
<defs>
<clipPath id="clip0_470_757">
<rect width="35" height="35" fill="white" transform="translate(206 19)"/>
</clipPath>
<clipPath id="clip1_470_757">
<rect width="35" height="35" fill="white" transform="translate(364 19)"/>
</clipPath>
</defs>
</svg>
